<?xml version="1.0" encoding="utf-8" standalone="no"?>
<!DOCTYPE svg PUBLIC "-//W3C//DTD SVG 1.1//EN"
  "http://www.w3.org/Graphics/SVG/1.1/DTD/svg11.dtd">
<!-- Created with matplotlib (https://matplotlib.org/) -->
<svg height="432pt" version="1.1" viewBox="0 0 648 432" width="648pt" xmlns="http://www.w3.org/2000/svg" xmlns:xlink="http://www.w3.org/1999/xlink">
 <metadata>
  <rdf:RDF xmlns:cc="http://creativecommons.org/ns#" xmlns:dc="http://purl.org/dc/elements/1.1/" xmlns:rdf="http://www.w3.org/1999/02/22-rdf-syntax-ns#">
   <cc:Work>
    <dc:type rdf:resource="http://purl.org/dc/dcmitype/StillImage"/>
    <dc:date>2023-10-10T11:25:33.683738</dc:date>
    <dc:format>image/svg+xml</dc:format>
    <dc:creator>
     <cc:Agent>
      <dc:title>Matplotlib v3.3.4, https://matplotlib.org/</dc:title>
     </cc:Agent>
    </dc:creator>
   </cc:Work>
  </rdf:RDF>
 </metadata>
 <defs>
  <style type="text/css">*{stroke-linecap:butt;stroke-linejoin:round;}</style>
 </defs>
 <g id="figure_1">
  <g id="patch_1">
   <path d="M 0 432 
L 648 432 
L 648 0 
L 0 0 
z
" style="fill:#ffffff;"/>
  </g>
  <g id="axes_1">
   <g id="patch_2">
    <path d="M 81 384.48 
L 583.2 384.48 
L 583.2 51.84 
L 81 51.84 
z
" style="fill:#ffffff;"/>
   </g>
   <g id="PolyCollection_1">
    <path clip-path="url(#pea7862f7f1)" d="M 103.827273 379.154697 
L 103.827273 379.154697 
L 127.855981 379.154697 
L 151.884689 382.284937 
L 175.913397 387.452487 
L 199.942105 395.145856 
L 223.970813 404.298597 
L 247.999522 407.08173 
L 272.02823 414.339726 
L 296.056938 419.399918 
L 320.085646 419.680515 
L 344.114354 420.0522 
L 368.143062 433.328275 
L 392.17177 431.578462 
L 416.200478 437.307746 
L 440.229187 428.913491 
L 464.257895 433.217291 
L 488.286603 432.530396 
L 512.315311 422.874329 
L 536.344019 430.153294 
L 560.372727 426.489176 
L 560.372727 71.231825 
L 560.372727 71.231825 
L 536.344019 88.996728 
L 512.315311 110.132132 
L 488.286603 135.250295 
L 464.257895 146.215164 
L 440.229187 158.730582 
L 416.200478 182.469207 
L 392.17177 208.637005 
L 368.143062 217.452594 
L 344.114354 256.37533 
L 320.085646 273.1596 
L 296.056938 287.275335 
L 272.02823 309.95163 
L 247.999522 330.299221 
L 223.970813 338.663272 
L 199.942105 356.687968 
L 175.913397 368.81199 
L 151.884689 375.726239 
L 127.855981 379.154697 
L 103.827273 379.154697 
z
" style="fill:#1f77b4;fill-opacity:0.5;"/>
   </g>
   <g id="PolyCollection_2">
    <path clip-path="url(#pea7862f7f1)" d="M 103.827273 379.154697 
L 103.827273 379.154697 
L 127.855981 379.980492 
L 151.884689 380.15372 
L 175.913397 409.732554 
L 199.942105 417.583963 
L 223.970813 423.709587 
L 247.999522 433.228316 
L 272.02823 443.943622 
L 296.056938 446.359334 
L 320.085646 451.304577 
L 344.114354 457.286998 
L 368.143062 458.74913 
L 392.17177 459.068323 
L 416.200478 457.534896 
L 440.229187 458.729821 
L 464.257895 456.532879 
L 488.286603 458.674068 
L 512.315311 458.431298 
L 536.344019 454.732196 
L 560.372727 454.828497 
L 560.372727 100.448382 
L 560.372727 100.448382 
L 536.344019 110.455073 
L 512.315311 114.397782 
L 488.286603 118.766724 
L 464.257895 151.027829 
L 440.229187 161.845928 
L 416.200478 176.407364 
L 392.17177 183.383771 
L 368.143062 198.432753 
L 344.114354 206.018985 
L 320.085646 233.393148 
L 296.056938 260.486329 
L 272.02823 272.487586 
L 247.999522 295.451089 
L 223.970813 316.126329 
L 199.942105 328.881956 
L 175.913397 342.729657 
L 151.884689 377.809528 
L 127.855981 378.233046 
L 103.827273 379.154697 
z
" style="fill:#ff7f0e;fill-opacity:0.5;"/>
   </g>
   <g id="PolyCollection_3">
    <path clip-path="url(#pea7862f7f1)" d="M 103.827273 379.154697 
L 103.827273 379.154697 
L 127.855981 379.154697 
L 151.884689 383.14553 
L 175.913397 385.784141 
L 199.942105 389.839238 
L 223.970813 395.781663 
L 247.999522 398.329456 
L 272.02823 405.509402 
L 296.056938 415.764078 
L 320.085646 415.833837 
L 344.114354 419.226782 
L 368.143062 417.261375 
L 392.17177 425.55394 
L 416.200478 429.386383 
L 440.229187 429.723329 
L 464.257895 425.247039 
L 488.286603 428.710195 
L 512.315311 434.10599 
L 536.344019 419.566597 
L 560.372727 428.198105 
L 560.372727 108.024839 
L 560.372727 108.024839 
L 536.344019 143.644985 
L 512.315311 129.318603 
L 488.286603 161.149204 
L 464.257895 181.727885 
L 440.229187 188.722299 
L 416.200478 216.72952 
L 392.17177 236.793488 
L 368.143062 264.779024 
L 344.114354 271.153043 
L 320.085646 291.895826 
L 296.056938 302.861155 
L 272.02823 327.781716 
L 247.999522 343.908172 
L 223.970813 353.133895 
L 199.942105 364.348371 
L 175.913397 370.703999 
L 151.884689 374.833695 
L 127.855981 379.154697 
L 103.827273 379.154697 
z
" style="fill:#2ca02c;fill-opacity:0.5;"/>
   </g>
   <g id="PolyCollection_4">
    <path clip-path="url(#pea7862f7f1)" d="M 103.827273 379.154697 
L 103.827273 379.154697 
L 127.855981 379.387467 
L 151.884689 380.57509 
L 175.913397 383.384332 
L 199.942105 387.020368 
L 223.970813 386.077876 
L 247.999522 392.798835 
L 272.02823 389.673256 
L 296.056938 390.350213 
L 320.085646 395.015567 
L 344.114354 395.311514 
L 368.143062 397.311709 
L 392.17177 403.216933 
L 416.200478 399.310449 
L 440.229187 396.149833 
L 464.257895 397.023769 
L 488.286603 397.12943 
L 512.315311 403.000574 
L 536.344019 398.714292 
L 560.372727 404.721652 
L 560.372727 260.000861 
L 560.372727 260.000861 
L 536.344019 277.276563 
L 512.315311 273.458907 
L 488.286603 290.736851 
L 464.257895 297.28613 
L 440.229187 304.603682 
L 416.200478 307.939936 
L 392.17177 306.664152 
L 368.143062 321.164415 
L 344.114354 329.448469 
L 320.085646 334.37743 
L 296.056938 347.105293 
L 272.02823 354.566686 
L 247.999522 354.295469 
L 223.970813 366.363033 
L 199.942105 368.253603 
L 175.913397 373.465929 
L 151.884689 377.531942 
L 127.855981 378.911276 
L 103.827273 379.154697 
z
" style="fill:#d62728;fill-opacity:0.5;"/>
   </g>
   <g id="matplotlib.axis_1">
    <g id="xtick_1">
     <g id="line2d_1">
      <defs>
       <path d="M 0 0 
L 0 3.5 
" id="ma89ffcd235" style="stroke:#000000;stroke-width:0.8;"/>
      </defs>
      <g>
       <use style="stroke:#000000;stroke-width:0.8;" x="139.870335" xlink:href="#ma89ffcd235" y="384.48"/>
      </g>
     </g>
     <g id="text_1">
      <!-- 25 -->
      <g transform="translate(129.690335 403.6375)scale(0.16 -0.16)">
       <defs>
        <path d="M 19.1875 8.296875 
L 53.609375 8.296875 
L 53.609375 0 
L 7.328125 0 
L 7.328125 8.296875 
Q 12.9375 14.109375 22.625 23.890625 
Q 32.328125 33.6875 34.8125 36.53125 
Q 39.546875 41.84375 41.421875 45.53125 
Q 43.3125 49.21875 43.3125 52.78125 
Q 43.3125 58.59375 39.234375 62.25 
Q 35.15625 65.921875 28.609375 65.921875 
Q 23.96875 65.921875 18.8125 64.3125 
Q 13.671875 62.703125 7.8125 59.421875 
L 7.8125 69.390625 
Q 13.765625 71.78125 18.9375 73 
Q 24.125 74.21875 28.421875 74.21875 
Q 39.75 74.21875 46.484375 68.546875 
Q 53.21875 62.890625 53.21875 53.421875 
Q 53.21875 48.921875 51.53125 44.890625 
Q 49.859375 40.875 45.40625 35.40625 
Q 44.1875 33.984375 37.640625 27.21875 
Q 31.109375 20.453125 19.1875 8.296875 
z
" id="DejaVuSans-50"/>
        <path d="M 10.796875 72.90625 
L 49.515625 72.90625 
L 49.515625 64.59375 
L 19.828125 64.59375 
L 19.828125 46.734375 
Q 21.96875 47.46875 24.109375 47.828125 
Q 26.265625 48.1875 28.421875 48.1875 
Q 40.625 48.1875 47.75 41.5 
Q 54.890625 34.8125 54.890625 23.390625 
Q 54.890625 11.625 47.5625 5.09375 
Q 40.234375 -1.421875 26.90625 -1.421875 
Q 22.3125 -1.421875 17.546875 -0.640625 
Q 12.796875 0.140625 7.71875 1.703125 
L 7.71875 11.625 
Q 12.109375 9.234375 16.796875 8.0625 
Q 21.484375 6.890625 26.703125 6.890625 
Q 35.15625 6.890625 40.078125 11.328125 
Q 45.015625 15.765625 45.015625 23.390625 
Q 45.015625 31 40.078125 35.4375 
Q 35.15625 39.890625 26.703125 39.890625 
Q 22.75 39.890625 18.8125 39.015625 
Q 14.890625 38.140625 10.796875 36.28125 
z
" id="DejaVuSans-53"/>
       </defs>
       <use xlink:href="#DejaVuSans-50"/>
       <use x="63.623047" xlink:href="#DejaVuSans-53"/>
      </g>
     </g>
    </g>
    <g id="xtick_2">
     <g id="line2d_2">
      <g>
       <use style="stroke:#000000;stroke-width:0.8;" x="199.942105" xlink:href="#ma89ffcd235" y="384.48"/>
      </g>
     </g>
     <g id="text_2">
      <!-- 50 -->
      <g transform="translate(189.762105 403.6375)scale(0.16 -0.16)">
       <defs>
        <path d="M 31.78125 66.40625 
Q 24.171875 66.40625 20.328125 58.90625 
Q 16.5 51.421875 16.5 36.375 
Q 16.5 21.390625 20.328125 13.890625 
Q 24.171875 6.390625 31.78125 6.390625 
Q 39.453125 6.390625 43.28125 13.890625 
Q 47.125 21.390625 47.125 36.375 
Q 47.125 51.421875 43.28125 58.90625 
Q 39.453125 66.40625 31.78125 66.40625 
z
M 31.78125 74.21875 
Q 44.046875 74.21875 50.515625 64.515625 
Q 56.984375 54.828125 56.984375 36.375 
Q 56.984375 17.96875 50.515625 8.265625 
Q 44.046875 -1.421875 31.78125 -1.421875 
Q 19.53125 -1.421875 13.0625 8.265625 
Q 6.59375 17.96875 6.59375 36.375 
Q 6.59375 54.828125 13.0625 64.515625 
Q 19.53125 74.21875 31.78125 74.21875 
z
" id="DejaVuSans-48"/>
       </defs>
       <use xlink:href="#DejaVuSans-53"/>
       <use x="63.623047" xlink:href="#DejaVuSans-48"/>
      </g>
     </g>
    </g>
    <g id="xtick_3">
     <g id="line2d_3">
      <g>
       <use style="stroke:#000000;stroke-width:0.8;" x="260.013876" xlink:href="#ma89ffcd235" y="384.48"/>
      </g>
     </g>
     <g id="text_3">
      <!-- 75 -->
      <g transform="translate(249.833876 403.6375)scale(0.16 -0.16)">
       <defs>
        <path d="M 8.203125 72.90625 
L 55.078125 72.90625 
L 55.078125 68.703125 
L 28.609375 0 
L 18.3125 0 
L 43.21875 64.59375 
L 8.203125 64.59375 
z
" id="DejaVuSans-55"/>
       </defs>
       <use xlink:href="#DejaVuSans-55"/>
       <use x="63.623047" xlink:href="#DejaVuSans-53"/>
      </g>
     </g>
    </g>
    <g id="xtick_4">
     <g id="line2d_4">
      <g>
       <use style="stroke:#000000;stroke-width:0.8;" x="320.085646" xlink:href="#ma89ffcd235" y="384.48"/>
      </g>
     </g>
     <g id="text_4">
      <!-- 100 -->
      <g transform="translate(304.815646 403.6375)scale(0.16 -0.16)">
       <defs>
        <path d="M 12.40625 8.296875 
L 28.515625 8.296875 
L 28.515625 63.921875 
L 10.984375 60.40625 
L 10.984375 69.390625 
L 28.421875 72.90625 
L 38.28125 72.90625 
L 38.28125 8.296875 
L 54.390625 8.296875 
L 54.390625 0 
L 12.40625 0 
z
" id="DejaVuSans-49"/>
       </defs>
       <use xlink:href="#DejaVuSans-49"/>
       <use x="63.623047" xlink:href="#DejaVuSans-48"/>
       <use x="127.246094" xlink:href="#DejaVuSans-48"/>
      </g>
     </g>
    </g>
    <g id="xtick_5">
     <g id="line2d_5">
      <g>
       <use style="stroke:#000000;stroke-width:0.8;" x="380.157416" xlink:href="#ma89ffcd235" y="384.48"/>
      </g>
     </g>
     <g id="text_5">
      <!-- 125 -->
      <g transform="translate(364.887416 403.6375)scale(0.16 -0.16)">
       <use xlink:href="#DejaVuSans-49"/>
       <use x="63.623047" xlink:href="#DejaVuSans-50"/>
       <use x="127.246094" xlink:href="#DejaVuSans-53"/>
      </g>
     </g>
    </g>
    <g id="xtick_6">
     <g id="line2d_6">
      <g>
       <use style="stroke:#000000;stroke-width:0.8;" x="440.229187" xlink:href="#ma89ffcd235" y="384.48"/>
      </g>
     </g>
     <g id="text_6">
      <!-- 150 -->
      <g transform="translate(424.959187 403.6375)scale(0.16 -0.16)">
       <use xlink:href="#DejaVuSans-49"/>
       <use x="63.623047" xlink:href="#DejaVuSans-53"/>
       <use x="127.246094" xlink:href="#DejaVuSans-48"/>
      </g>
     </g>
    </g>
    <g id="xtick_7">
     <g id="line2d_7">
      <g>
       <use style="stroke:#000000;stroke-width:0.8;" x="500.300957" xlink:href="#ma89ffcd235" y="384.48"/>
      </g>
     </g>
     <g id="text_7">
      <!-- 175 -->
      <g transform="translate(485.030957 403.6375)scale(0.16 -0.16)">
       <use xlink:href="#DejaVuSans-49"/>
       <use x="63.623047" xlink:href="#DejaVuSans-55"/>
       <use x="127.246094" xlink:href="#DejaVuSans-53"/>
      </g>
     </g>
    </g>
    <g id="xtick_8">
     <g id="line2d_8">
      <g>
       <use style="stroke:#000000;stroke-width:0.8;" x="560.372727" xlink:href="#ma89ffcd235" y="384.48"/>
      </g>
     </g>
     <g id="text_8">
      <!-- 200 -->
      <g transform="translate(545.102727 403.6375)scale(0.16 -0.16)">
       <use xlink:href="#DejaVuSans-50"/>
       <use x="63.623047" xlink:href="#DejaVuSans-48"/>
       <use x="127.246094" xlink:href="#DejaVuSans-48"/>
      </g>
     </g>
    </g>
    <g id="text_9">
     <!-- E_1 -->
     <g transform="translate(317.955 422.6775)scale(0.16 -0.16)">
      <defs>
       <path d="M 9.8125 72.90625 
L 55.90625 72.90625 
L 55.90625 64.59375 
L 19.671875 64.59375 
L 19.671875 43.015625 
L 54.390625 43.015625 
L 54.390625 34.71875 
L 19.671875 34.71875 
L 19.671875 8.296875 
L 56.78125 8.296875 
L 56.78125 0 
L 9.8125 0 
z
" id="DejaVuSans-69"/>
       <path d="M 50.984375 -16.609375 
L 50.984375 -23.578125 
L -0.984375 -23.578125 
L -0.984375 -16.609375 
z
" id="DejaVuSans-95"/>
      </defs>
      <use xlink:href="#DejaVuSans-69"/>
      <use x="63.183594" xlink:href="#DejaVuSans-95"/>
      <use x="113.183594" xlink:href="#DejaVuSans-49"/>
     </g>
    </g>
   </g>
   <g id="matplotlib.axis_2">
    <g id="ytick_1">
     <g id="line2d_9">
      <defs>
       <path d="M 0 0 
L -3.5 0 
" id="m945e1033f2" style="stroke:#000000;stroke-width:0.8;"/>
      </defs>
      <g>
       <use style="stroke:#000000;stroke-width:0.8;" x="81" xlink:href="#m945e1033f2" y="379.154697"/>
      </g>
     </g>
     <g id="text_10">
      <!-- 0 -->
      <g transform="translate(63.82 385.233447)scale(0.16 -0.16)">
       <use xlink:href="#DejaVuSans-48"/>
      </g>
     </g>
    </g>
    <g id="ytick_2">
     <g id="line2d_10">
      <g>
       <use style="stroke:#000000;stroke-width:0.8;" x="81" xlink:href="#m945e1033f2" y="325.901664"/>
      </g>
     </g>
     <g id="text_11">
      <!-- 10 -->
      <g transform="translate(53.64 331.980414)scale(0.16 -0.16)">
       <use xlink:href="#DejaVuSans-49"/>
       <use x="63.623047" xlink:href="#DejaVuSans-48"/>
      </g>
     </g>
    </g>
    <g id="ytick_3">
     <g id="line2d_11">
      <g>
       <use style="stroke:#000000;stroke-width:0.8;" x="81" xlink:href="#m945e1033f2" y="272.648631"/>
      </g>
     </g>
     <g id="text_12">
      <!-- 20 -->
      <g transform="translate(53.64 278.727381)scale(0.16 -0.16)">
       <use xlink:href="#DejaVuSans-50"/>
       <use x="63.623047" xlink:href="#DejaVuSans-48"/>
      </g>
     </g>
    </g>
    <g id="ytick_4">
     <g id="line2d_12">
      <g>
       <use style="stroke:#000000;stroke-width:0.8;" x="81" xlink:href="#m945e1033f2" y="219.395597"/>
      </g>
     </g>
     <g id="text_13">
      <!-- 30 -->
      <g transform="translate(53.64 225.474347)scale(0.16 -0.16)">
       <defs>
        <path d="M 40.578125 39.3125 
Q 47.65625 37.796875 51.625 33 
Q 55.609375 28.21875 55.609375 21.1875 
Q 55.609375 10.40625 48.1875 4.484375 
Q 40.765625 -1.421875 27.09375 -1.421875 
Q 22.515625 -1.421875 17.65625 -0.515625 
Q 12.796875 0.390625 7.625 2.203125 
L 7.625 11.71875 
Q 11.71875 9.328125 16.59375 8.109375 
Q 21.484375 6.890625 26.8125 6.890625 
Q 36.078125 6.890625 40.9375 10.546875 
Q 45.796875 14.203125 45.796875 21.1875 
Q 45.796875 27.640625 41.28125 31.265625 
Q 36.765625 34.90625 28.71875 34.90625 
L 20.21875 34.90625 
L 20.21875 43.015625 
L 29.109375 43.015625 
Q 36.375 43.015625 40.234375 45.921875 
Q 44.09375 48.828125 44.09375 54.296875 
Q 44.09375 59.90625 40.109375 62.90625 
Q 36.140625 65.921875 28.71875 65.921875 
Q 24.65625 65.921875 20.015625 65.03125 
Q 15.375 64.15625 9.8125 62.3125 
L 9.8125 71.09375 
Q 15.4375 72.65625 20.34375 73.4375 
Q 25.25 74.21875 29.59375 74.21875 
Q 40.828125 74.21875 47.359375 69.109375 
Q 53.90625 64.015625 53.90625 55.328125 
Q 53.90625 49.265625 50.4375 45.09375 
Q 46.96875 40.921875 40.578125 39.3125 
z
" id="DejaVuSans-51"/>
       </defs>
       <use xlink:href="#DejaVuSans-51"/>
       <use x="63.623047" xlink:href="#DejaVuSans-48"/>
      </g>
     </g>
    </g>
    <g id="ytick_5">
     <g id="line2d_13">
      <g>
       <use style="stroke:#000000;stroke-width:0.8;" x="81" xlink:href="#m945e1033f2" y="166.142564"/>
      </g>
     </g>
     <g id="text_14">
      <!-- 40 -->
      <g transform="translate(53.64 172.221314)scale(0.16 -0.16)">
       <defs>
        <path d="M 37.796875 64.3125 
L 12.890625 25.390625 
L 37.796875 25.390625 
z
M 35.203125 72.90625 
L 47.609375 72.90625 
L 47.609375 25.390625 
L 58.015625 25.390625 
L 58.015625 17.1875 
L 47.609375 17.1875 
L 47.609375 0 
L 37.796875 0 
L 37.796875 17.1875 
L 4.890625 17.1875 
L 4.890625 26.703125 
z
" id="DejaVuSans-52"/>
       </defs>
       <use xlink:href="#DejaVuSans-52"/>
       <use x="63.623047" xlink:href="#DejaVuSans-48"/>
      </g>
     </g>
    </g>
    <g id="ytick_6">
     <g id="line2d_14">
      <g>
       <use style="stroke:#000000;stroke-width:0.8;" x="81" xlink:href="#m945e1033f2" y="112.889531"/>
      </g>
     </g>
     <g id="text_15">
      <!-- 50 -->
      <g transform="translate(53.64 118.968281)scale(0.16 -0.16)">
       <use xlink:href="#DejaVuSans-53"/>
       <use x="63.623047" xlink:href="#DejaVuSans-48"/>
      </g>
     </g>
    </g>
    <g id="ytick_7">
     <g id="line2d_15">
      <g>
       <use style="stroke:#000000;stroke-width:0.8;" x="81" xlink:href="#m945e1033f2" y="59.636498"/>
      </g>
     </g>
     <g id="text_16">
      <!-- 60 -->
      <g transform="translate(53.64 65.715248)scale(0.16 -0.16)">
       <defs>
        <path d="M 33.015625 40.375 
Q 26.375 40.375 22.484375 35.828125 
Q 18.609375 31.296875 18.609375 23.390625 
Q 18.609375 15.53125 22.484375 10.953125 
Q 26.375 6.390625 33.015625 6.390625 
Q 39.65625 6.390625 43.53125 10.953125 
Q 47.40625 15.53125 47.40625 23.390625 
Q 47.40625 31.296875 43.53125 35.828125 
Q 39.65625 40.375 33.015625 40.375 
z
M 52.59375 71.296875 
L 52.59375 62.3125 
Q 48.875 64.0625 45.09375 64.984375 
Q 41.3125 65.921875 37.59375 65.921875 
Q 27.828125 65.921875 22.671875 59.328125 
Q 17.53125 52.734375 16.796875 39.40625 
Q 19.671875 43.65625 24.015625 45.921875 
Q 28.375 48.1875 33.59375 48.1875 
Q 44.578125 48.1875 50.953125 41.515625 
Q 57.328125 34.859375 57.328125 23.390625 
Q 57.328125 12.15625 50.6875 5.359375 
Q 44.046875 -1.421875 33.015625 -1.421875 
Q 20.359375 -1.421875 13.671875 8.265625 
Q 6.984375 17.96875 6.984375 36.375 
Q 6.984375 53.65625 15.1875 63.9375 
Q 23.390625 74.21875 37.203125 74.21875 
Q 40.921875 74.21875 44.703125 73.484375 
Q 48.484375 72.75 52.59375 71.296875 
z
" id="DejaVuSans-54"/>
       </defs>
       <use xlink:href="#DejaVuSans-54"/>
       <use x="63.623047" xlink:href="#DejaVuSans-48"/>
      </g>
     </g>
    </g>
    <g id="text_17">
     <!-- ALG-OPT -->
     <g transform="translate(46.3125 253.4025)rotate(-90)scale(0.16 -0.16)">
      <defs>
       <path d="M 34.1875 63.1875 
L 20.796875 26.90625 
L 47.609375 26.90625 
z
M 28.609375 72.90625 
L 39.796875 72.90625 
L 67.578125 0 
L 57.328125 0 
L 50.6875 18.703125 
L 17.828125 18.703125 
L 11.1875 0 
L 0.78125 0 
z
" id="DejaVuSans-65"/>
       <path d="M 9.8125 72.90625 
L 19.671875 72.90625 
L 19.671875 8.296875 
L 55.171875 8.296875 
L 55.171875 0 
L 9.8125 0 
z
" id="DejaVuSans-76"/>
       <path d="M 59.515625 10.40625 
L 59.515625 29.984375 
L 43.40625 29.984375 
L 43.40625 38.09375 
L 69.28125 38.09375 
L 69.28125 6.78125 
Q 63.578125 2.734375 56.6875 0.65625 
Q 49.8125 -1.421875 42 -1.421875 
Q 24.90625 -1.421875 15.25 8.5625 
Q 5.609375 18.5625 5.609375 36.375 
Q 5.609375 54.25 15.25 64.234375 
Q 24.90625 74.21875 42 74.21875 
Q 49.125 74.21875 55.546875 72.453125 
Q 61.96875 70.703125 67.390625 67.28125 
L 67.390625 56.78125 
Q 61.921875 61.421875 55.765625 63.765625 
Q 49.609375 66.109375 42.828125 66.109375 
Q 29.4375 66.109375 22.71875 58.640625 
Q 16.015625 51.171875 16.015625 36.375 
Q 16.015625 21.625 22.71875 14.15625 
Q 29.4375 6.6875 42.828125 6.6875 
Q 48.046875 6.6875 52.140625 7.59375 
Q 56.25 8.5 59.515625 10.40625 
z
" id="DejaVuSans-71"/>
       <path d="M 4.890625 31.390625 
L 31.203125 31.390625 
L 31.203125 23.390625 
L 4.890625 23.390625 
z
" id="DejaVuSans-45"/>
       <path d="M 39.40625 66.21875 
Q 28.65625 66.21875 22.328125 58.203125 
Q 16.015625 50.203125 16.015625 36.375 
Q 16.015625 22.609375 22.328125 14.59375 
Q 28.65625 6.59375 39.40625 6.59375 
Q 50.140625 6.59375 56.421875 14.59375 
Q 62.703125 22.609375 62.703125 36.375 
Q 62.703125 50.203125 56.421875 58.203125 
Q 50.140625 66.21875 39.40625 66.21875 
z
M 39.40625 74.21875 
Q 54.734375 74.21875 63.90625 63.9375 
Q 73.09375 53.65625 73.09375 36.375 
Q 73.09375 19.140625 63.90625 8.859375 
Q 54.734375 -1.421875 39.40625 -1.421875 
Q 24.03125 -1.421875 14.8125 8.828125 
Q 5.609375 19.09375 5.609375 36.375 
Q 5.609375 53.65625 14.8125 63.9375 
Q 24.03125 74.21875 39.40625 74.21875 
z
" id="DejaVuSans-79"/>
       <path d="M 19.671875 64.796875 
L 19.671875 37.40625 
L 32.078125 37.40625 
Q 38.96875 37.40625 42.71875 40.96875 
Q 46.484375 44.53125 46.484375 51.125 
Q 46.484375 57.671875 42.71875 61.234375 
Q 38.96875 64.796875 32.078125 64.796875 
z
M 9.8125 72.90625 
L 32.078125 72.90625 
Q 44.34375 72.90625 50.609375 67.359375 
Q 56.890625 61.8125 56.890625 51.125 
Q 56.890625 40.328125 50.609375 34.8125 
Q 44.34375 29.296875 32.078125 29.296875 
L 19.671875 29.296875 
L 19.671875 0 
L 9.8125 0 
z
" id="DejaVuSans-80"/>
       <path d="M -0.296875 72.90625 
L 61.375 72.90625 
L 61.375 64.59375 
L 35.5 64.59375 
L 35.5 0 
L 25.59375 0 
L 25.59375 64.59375 
L -0.296875 64.59375 
z
" id="DejaVuSans-84"/>
      </defs>
      <use xlink:href="#DejaVuSans-65"/>
      <use x="68.408203" xlink:href="#DejaVuSans-76"/>
      <use x="124.121094" xlink:href="#DejaVuSans-71"/>
      <use x="201.611328" xlink:href="#DejaVuSans-45"/>
      <use x="240.445312" xlink:href="#DejaVuSans-79"/>
      <use x="319.15625" xlink:href="#DejaVuSans-80"/>
      <use x="379.458984" xlink:href="#DejaVuSans-84"/>
     </g>
    </g>
   </g>
   <g id="LineCollection_1">
    <path clip-path="url(#pea7862f7f1)" d="M 103.827273 379.154697 
L 103.827273 379.154697 
" style="fill:none;stroke:#1f77b4;stroke-width:1.5;"/>
    <path clip-path="url(#pea7862f7f1)" d="M 127.855981 379.154697 
L 127.855981 379.154697 
" style="fill:none;stroke:#1f77b4;stroke-width:1.5;"/>
    <path clip-path="url(#pea7862f7f1)" d="M 151.884689 382.284937 
L 151.884689 375.726239 
" style="fill:none;stroke:#1f77b4;stroke-width:1.5;"/>
    <path clip-path="url(#pea7862f7f1)" d="M 175.913397 387.452487 
L 175.913397 368.81199 
" style="fill:none;stroke:#1f77b4;stroke-width:1.5;"/>
    <path clip-path="url(#pea7862f7f1)" d="M 199.942105 395.145856 
L 199.942105 356.687968 
" style="fill:none;stroke:#1f77b4;stroke-width:1.5;"/>
    <path clip-path="url(#pea7862f7f1)" d="M 223.970813 404.298597 
L 223.970813 338.663272 
" style="fill:none;stroke:#1f77b4;stroke-width:1.5;"/>
    <path clip-path="url(#pea7862f7f1)" d="M 247.999522 407.08173 
L 247.999522 330.299221 
" style="fill:none;stroke:#1f77b4;stroke-width:1.5;"/>
    <path clip-path="url(#pea7862f7f1)" d="M 272.02823 414.339726 
L 272.02823 309.95163 
" style="fill:none;stroke:#1f77b4;stroke-width:1.5;"/>
    <path clip-path="url(#pea7862f7f1)" d="M 296.056938 419.399918 
L 296.056938 287.275335 
" style="fill:none;stroke:#1f77b4;stroke-width:1.5;"/>
    <path clip-path="url(#pea7862f7f1)" d="M 320.085646 419.680515 
L 320.085646 273.1596 
" style="fill:none;stroke:#1f77b4;stroke-width:1.5;"/>
    <path clip-path="url(#pea7862f7f1)" d="M 344.114354 420.0522 
L 344.114354 256.37533 
" style="fill:none;stroke:#1f77b4;stroke-width:1.5;"/>
    <path clip-path="url(#pea7862f7f1)" d="M 368.143062 433 
L 368.143062 217.452594 
" style="fill:none;stroke:#1f77b4;stroke-width:1.5;"/>
    <path clip-path="url(#pea7862f7f1)" d="M 392.17177 431.578462 
L 392.17177 208.637005 
" style="fill:none;stroke:#1f77b4;stroke-width:1.5;"/>
    <path clip-path="url(#pea7862f7f1)" d="M 416.200478 433 
L 416.200478 182.469207 
" style="fill:none;stroke:#1f77b4;stroke-width:1.5;"/>
    <path clip-path="url(#pea7862f7f1)" d="M 440.229187 428.913491 
L 440.229187 158.730582 
" style="fill:none;stroke:#1f77b4;stroke-width:1.5;"/>
    <path clip-path="url(#pea7862f7f1)" d="M 464.257895 433 
L 464.257895 146.215164 
" style="fill:none;stroke:#1f77b4;stroke-width:1.5;"/>
    <path clip-path="url(#pea7862f7f1)" d="M 488.286603 432.530396 
L 488.286603 135.250295 
" style="fill:none;stroke:#1f77b4;stroke-width:1.5;"/>
    <path clip-path="url(#pea7862f7f1)" d="M 512.315311 422.874329 
L 512.315311 110.132132 
" style="fill:none;stroke:#1f77b4;stroke-width:1.5;"/>
    <path clip-path="url(#pea7862f7f1)" d="M 536.344019 430.153294 
L 536.344019 88.996728 
" style="fill:none;stroke:#1f77b4;stroke-width:1.5;"/>
    <path clip-path="url(#pea7862f7f1)" d="M 560.372727 426.489176 
L 560.372727 71.231825 
" style="fill:none;stroke:#1f77b4;stroke-width:1.5;"/>
   </g>
   <g id="LineCollection_2">
    <path clip-path="url(#pea7862f7f1)" d="M 103.827273 379.154697 
L 103.827273 379.154697 
" style="fill:none;stroke:#ff7f0e;stroke-width:1.5;"/>
    <path clip-path="url(#pea7862f7f1)" d="M 127.855981 379.980492 
L 127.855981 378.233046 
" style="fill:none;stroke:#ff7f0e;stroke-width:1.5;"/>
    <path clip-path="url(#pea7862f7f1)" d="M 151.884689 380.15372 
L 151.884689 377.809528 
" style="fill:none;stroke:#ff7f0e;stroke-width:1.5;"/>
    <path clip-path="url(#pea7862f7f1)" d="M 175.913397 409.732554 
L 175.913397 342.729657 
" style="fill:none;stroke:#ff7f0e;stroke-width:1.5;"/>
    <path clip-path="url(#pea7862f7f1)" d="M 199.942105 417.583963 
L 199.942105 328.881956 
" style="fill:none;stroke:#ff7f0e;stroke-width:1.5;"/>
    <path clip-path="url(#pea7862f7f1)" d="M 223.970813 423.709587 
L 223.970813 316.126329 
" style="fill:none;stroke:#ff7f0e;stroke-width:1.5;"/>
    <path clip-path="url(#pea7862f7f1)" d="M 247.999522 433 
L 247.999522 295.451089 
" style="fill:none;stroke:#ff7f0e;stroke-width:1.5;"/>
    <path clip-path="url(#pea7862f7f1)" d="M 272.02823 433 
L 272.02823 272.487586 
" style="fill:none;stroke:#ff7f0e;stroke-width:1.5;"/>
    <path clip-path="url(#pea7862f7f1)" d="M 296.056938 433 
L 296.056938 260.486329 
" style="fill:none;stroke:#ff7f0e;stroke-width:1.5;"/>
    <path clip-path="url(#pea7862f7f1)" d="M 320.085646 433 
L 320.085646 233.393148 
" style="fill:none;stroke:#ff7f0e;stroke-width:1.5;"/>
    <path clip-path="url(#pea7862f7f1)" d="M 344.114354 433 
L 344.114354 206.018985 
" style="fill:none;stroke:#ff7f0e;stroke-width:1.5;"/>
    <path clip-path="url(#pea7862f7f1)" d="M 368.143062 433 
L 368.143062 198.432753 
" style="fill:none;stroke:#ff7f0e;stroke-width:1.5;"/>
    <path clip-path="url(#pea7862f7f1)" d="M 392.17177 433 
L 392.17177 183.383771 
" style="fill:none;stroke:#ff7f0e;stroke-width:1.5;"/>
    <path clip-path="url(#pea7862f7f1)" d="M 416.200478 433 
L 416.200478 176.407364 
" style="fill:none;stroke:#ff7f0e;stroke-width:1.5;"/>
    <path clip-path="url(#pea7862f7f1)" d="M 440.229187 433 
L 440.229187 161.845928 
" style="fill:none;stroke:#ff7f0e;stroke-width:1.5;"/>
    <path clip-path="url(#pea7862f7f1)" d="M 464.257895 433 
L 464.257895 151.027829 
" style="fill:none;stroke:#ff7f0e;stroke-width:1.5;"/>
    <path clip-path="url(#pea7862f7f1)" d="M 488.286603 433 
L 488.286603 118.766724 
" style="fill:none;stroke:#ff7f0e;stroke-width:1.5;"/>
    <path clip-path="url(#pea7862f7f1)" d="M 512.315311 433 
L 512.315311 114.397782 
" style="fill:none;stroke:#ff7f0e;stroke-width:1.5;"/>
    <path clip-path="url(#pea7862f7f1)" d="M 536.344019 433 
L 536.344019 110.455073 
" style="fill:none;stroke:#ff7f0e;stroke-width:1.5;"/>
    <path clip-path="url(#pea7862f7f1)" d="M 560.372727 433 
L 560.372727 100.448382 
" style="fill:none;stroke:#ff7f0e;stroke-width:1.5;"/>
   </g>
   <g id="LineCollection_3">
    <path clip-path="url(#pea7862f7f1)" d="M 103.827273 379.154697 
L 103.827273 379.154697 
" style="fill:none;stroke:#2ca02c;stroke-width:1.5;"/>
    <path clip-path="url(#pea7862f7f1)" d="M 127.855981 379.154697 
L 127.855981 379.154697 
" style="fill:none;stroke:#2ca02c;stroke-width:1.5;"/>
    <path clip-path="url(#pea7862f7f1)" d="M 151.884689 383.14553 
L 151.884689 374.833695 
" style="fill:none;stroke:#2ca02c;stroke-width:1.5;"/>
    <path clip-path="url(#pea7862f7f1)" d="M 175.913397 385.784141 
L 175.913397 370.703999 
" style="fill:none;stroke:#2ca02c;stroke-width:1.5;"/>
    <path clip-path="url(#pea7862f7f1)" d="M 199.942105 389.839238 
L 199.942105 364.348371 
" style="fill:none;stroke:#2ca02c;stroke-width:1.5;"/>
    <path clip-path="url(#pea7862f7f1)" d="M 223.970813 395.781663 
L 223.970813 353.133895 
" style="fill:none;stroke:#2ca02c;stroke-width:1.5;"/>
    <path clip-path="url(#pea7862f7f1)" d="M 247.999522 398.329456 
L 247.999522 343.908172 
" style="fill:none;stroke:#2ca02c;stroke-width:1.5;"/>
    <path clip-path="url(#pea7862f7f1)" d="M 272.02823 405.509402 
L 272.02823 327.781716 
" style="fill:none;stroke:#2ca02c;stroke-width:1.5;"/>
    <path clip-path="url(#pea7862f7f1)" d="M 296.056938 415.764078 
L 296.056938 302.861155 
" style="fill:none;stroke:#2ca02c;stroke-width:1.5;"/>
    <path clip-path="url(#pea7862f7f1)" d="M 320.085646 415.833837 
L 320.085646 291.895826 
" style="fill:none;stroke:#2ca02c;stroke-width:1.5;"/>
    <path clip-path="url(#pea7862f7f1)" d="M 344.114354 419.226782 
L 344.114354 271.153043 
" style="fill:none;stroke:#2ca02c;stroke-width:1.5;"/>
    <path clip-path="url(#pea7862f7f1)" d="M 368.143062 417.261375 
L 368.143062 264.779024 
" style="fill:none;stroke:#2ca02c;stroke-width:1.5;"/>
    <path clip-path="url(#pea7862f7f1)" d="M 392.17177 425.55394 
L 392.17177 236.793488 
" style="fill:none;stroke:#2ca02c;stroke-width:1.5;"/>
    <path clip-path="url(#pea7862f7f1)" d="M 416.200478 429.386383 
L 416.200478 216.72952 
" style="fill:none;stroke:#2ca02c;stroke-width:1.5;"/>
    <path clip-path="url(#pea7862f7f1)" d="M 440.229187 429.723329 
L 440.229187 188.722299 
" style="fill:none;stroke:#2ca02c;stroke-width:1.5;"/>
    <path clip-path="url(#pea7862f7f1)" d="M 464.257895 425.247039 
L 464.257895 181.727885 
" style="fill:none;stroke:#2ca02c;stroke-width:1.5;"/>
    <path clip-path="url(#pea7862f7f1)" d="M 488.286603 428.710195 
L 488.286603 161.149204 
" style="fill:none;stroke:#2ca02c;stroke-width:1.5;"/>
    <path clip-path="url(#pea7862f7f1)" d="M 512.315311 433 
L 512.315311 129.318603 
" style="fill:none;stroke:#2ca02c;stroke-width:1.5;"/>
    <path clip-path="url(#pea7862f7f1)" d="M 536.344019 419.566597 
L 536.344019 143.644985 
" style="fill:none;stroke:#2ca02c;stroke-width:1.5;"/>
    <path clip-path="url(#pea7862f7f1)" d="M 560.372727 428.198105 
L 560.372727 108.024839 
" style="fill:none;stroke:#2ca02c;stroke-width:1.5;"/>
   </g>
   <g id="LineCollection_4">
    <path clip-path="url(#pea7862f7f1)" d="M 103.827273 379.154697 
L 103.827273 379.154697 
" style="fill:none;stroke:#d62728;stroke-width:1.5;"/>
    <path clip-path="url(#pea7862f7f1)" d="M 127.855981 379.387467 
L 127.855981 378.911276 
" style="fill:none;stroke:#d62728;stroke-width:1.5;"/>
    <path clip-path="url(#pea7862f7f1)" d="M 151.884689 380.57509 
L 151.884689 377.531942 
" style="fill:none;stroke:#d62728;stroke-width:1.5;"/>
    <path clip-path="url(#pea7862f7f1)" d="M 175.913397 383.384332 
L 175.913397 373.465929 
" style="fill:none;stroke:#d62728;stroke-width:1.5;"/>
    <path clip-path="url(#pea7862f7f1)" d="M 199.942105 387.020368 
L 199.942105 368.253603 
" style="fill:none;stroke:#d62728;stroke-width:1.5;"/>
    <path clip-path="url(#pea7862f7f1)" d="M 223.970813 386.077876 
L 223.970813 366.363033 
" style="fill:none;stroke:#d62728;stroke-width:1.5;"/>
    <path clip-path="url(#pea7862f7f1)" d="M 247.999522 392.798835 
L 247.999522 354.295469 
" style="fill:none;stroke:#d62728;stroke-width:1.5;"/>
    <path clip-path="url(#pea7862f7f1)" d="M 272.02823 389.673256 
L 272.02823 354.566686 
" style="fill:none;stroke:#d62728;stroke-width:1.5;"/>
    <path clip-path="url(#pea7862f7f1)" d="M 296.056938 390.350213 
L 296.056938 347.105293 
" style="fill:none;stroke:#d62728;stroke-width:1.5;"/>
    <path clip-path="url(#pea7862f7f1)" d="M 320.085646 395.015567 
L 320.085646 334.37743 
" style="fill:none;stroke:#d62728;stroke-width:1.5;"/>
    <path clip-path="url(#pea7862f7f1)" d="M 344.114354 395.311514 
L 344.114354 329.448469 
" style="fill:none;stroke:#d62728;stroke-width:1.5;"/>
    <path clip-path="url(#pea7862f7f1)" d="M 368.143062 397.311709 
L 368.143062 321.164415 
" style="fill:none;stroke:#d62728;stroke-width:1.5;"/>
    <path clip-path="url(#pea7862f7f1)" d="M 392.17177 403.216933 
L 392.17177 306.664152 
" style="fill:none;stroke:#d62728;stroke-width:1.5;"/>
    <path clip-path="url(#pea7862f7f1)" d="M 416.200478 399.310449 
L 416.200478 307.939936 
" style="fill:none;stroke:#d62728;stroke-width:1.5;"/>
    <path clip-path="url(#pea7862f7f1)" d="M 440.229187 396.149833 
L 440.229187 304.603682 
" style="fill:none;stroke:#d62728;stroke-width:1.5;"/>
    <path clip-path="url(#pea7862f7f1)" d="M 464.257895 397.023769 
L 464.257895 297.28613 
" style="fill:none;stroke:#d62728;stroke-width:1.5;"/>
    <path clip-path="url(#pea7862f7f1)" d="M 488.286603 397.12943 
L 488.286603 290.736851 
" style="fill:none;stroke:#d62728;stroke-width:1.5;"/>
    <path clip-path="url(#pea7862f7f1)" d="M 512.315311 403.000574 
L 512.315311 273.458907 
" style="fill:none;stroke:#d62728;stroke-width:1.5;"/>
    <path clip-path="url(#pea7862f7f1)" d="M 536.344019 398.714292 
L 536.344019 277.276563 
" style="fill:none;stroke:#d62728;stroke-width:1.5;"/>
    <path clip-path="url(#pea7862f7f1)" d="M 560.372727 404.721652 
L 560.372727 260.000861 
" style="fill:none;stroke:#d62728;stroke-width:1.5;"/>
   </g>
   <g id="line2d_16">
    <defs>
     <path d="M 5 0 
L -5 -0 
" id="mefc0a0a202" style="stroke:#1f77b4;"/>
    </defs>
    <g clip-path="url(#pea7862f7f1)">
     <use style="fill:#1f77b4;stroke:#1f77b4;" x="103.827273" xlink:href="#mefc0a0a202" y="379.154697"/>
     <use style="fill:#1f77b4;stroke:#1f77b4;" x="127.855981" xlink:href="#mefc0a0a202" y="379.154697"/>
     <use style="fill:#1f77b4;stroke:#1f77b4;" x="151.884689" xlink:href="#mefc0a0a202" y="382.284937"/>
     <use style="fill:#1f77b4;stroke:#1f77b4;" x="175.913397" xlink:href="#mefc0a0a202" y="387.452487"/>
     <use style="fill:#1f77b4;stroke:#1f77b4;" x="199.942105" xlink:href="#mefc0a0a202" y="395.145856"/>
     <use style="fill:#1f77b4;stroke:#1f77b4;" x="223.970813" xlink:href="#mefc0a0a202" y="404.298597"/>
     <use style="fill:#1f77b4;stroke:#1f77b4;" x="247.999522" xlink:href="#mefc0a0a202" y="407.08173"/>
     <use style="fill:#1f77b4;stroke:#1f77b4;" x="272.02823" xlink:href="#mefc0a0a202" y="414.339726"/>
     <use style="fill:#1f77b4;stroke:#1f77b4;" x="296.056938" xlink:href="#mefc0a0a202" y="419.399918"/>
     <use style="fill:#1f77b4;stroke:#1f77b4;" x="320.085646" xlink:href="#mefc0a0a202" y="419.680515"/>
     <use style="fill:#1f77b4;stroke:#1f77b4;" x="344.114354" xlink:href="#mefc0a0a202" y="420.0522"/>
     <use style="fill:#1f77b4;stroke:#1f77b4;" x="368.143062" xlink:href="#mefc0a0a202" y="433.328275"/>
     <use style="fill:#1f77b4;stroke:#1f77b4;" x="392.17177" xlink:href="#mefc0a0a202" y="431.578462"/>
     <use style="fill:#1f77b4;stroke:#1f77b4;" x="416.200478" xlink:href="#mefc0a0a202" y="437.307746"/>
     <use style="fill:#1f77b4;stroke:#1f77b4;" x="440.229187" xlink:href="#mefc0a0a202" y="428.913491"/>
     <use style="fill:#1f77b4;stroke:#1f77b4;" x="464.257895" xlink:href="#mefc0a0a202" y="433.217291"/>
     <use style="fill:#1f77b4;stroke:#1f77b4;" x="488.286603" xlink:href="#mefc0a0a202" y="432.530396"/>
     <use style="fill:#1f77b4;stroke:#1f77b4;" x="512.315311" xlink:href="#mefc0a0a202" y="422.874329"/>
     <use style="fill:#1f77b4;stroke:#1f77b4;" x="536.344019" xlink:href="#mefc0a0a202" y="430.153294"/>
     <use style="fill:#1f77b4;stroke:#1f77b4;" x="560.372727" xlink:href="#mefc0a0a202" y="426.489176"/>
    </g>
   </g>
   <g id="line2d_17">
    <g clip-path="url(#pea7862f7f1)">
     <use style="fill:#1f77b4;stroke:#1f77b4;" x="103.827273" xlink:href="#mefc0a0a202" y="379.154697"/>
     <use style="fill:#1f77b4;stroke:#1f77b4;" x="127.855981" xlink:href="#mefc0a0a202" y="379.154697"/>
     <use style="fill:#1f77b4;stroke:#1f77b4;" x="151.884689" xlink:href="#mefc0a0a202" y="375.726239"/>
     <use style="fill:#1f77b4;stroke:#1f77b4;" x="175.913397" xlink:href="#mefc0a0a202" y="368.81199"/>
     <use style="fill:#1f77b4;stroke:#1f77b4;" x="199.942105" xlink:href="#mefc0a0a202" y="356.687968"/>
     <use style="fill:#1f77b4;stroke:#1f77b4;" x="223.970813" xlink:href="#mefc0a0a202" y="338.663272"/>
     <use style="fill:#1f77b4;stroke:#1f77b4;" x="247.999522" xlink:href="#mefc0a0a202" y="330.299221"/>
     <use style="fill:#1f77b4;stroke:#1f77b4;" x="272.02823" xlink:href="#mefc0a0a202" y="309.95163"/>
     <use style="fill:#1f77b4;stroke:#1f77b4;" x="296.056938" xlink:href="#mefc0a0a202" y="287.275335"/>
     <use style="fill:#1f77b4;stroke:#1f77b4;" x="320.085646" xlink:href="#mefc0a0a202" y="273.1596"/>
     <use style="fill:#1f77b4;stroke:#1f77b4;" x="344.114354" xlink:href="#mefc0a0a202" y="256.37533"/>
     <use style="fill:#1f77b4;stroke:#1f77b4;" x="368.143062" xlink:href="#mefc0a0a202" y="217.452594"/>
     <use style="fill:#1f77b4;stroke:#1f77b4;" x="392.17177" xlink:href="#mefc0a0a202" y="208.637005"/>
     <use style="fill:#1f77b4;stroke:#1f77b4;" x="416.200478" xlink:href="#mefc0a0a202" y="182.469207"/>
     <use style="fill:#1f77b4;stroke:#1f77b4;" x="440.229187" xlink:href="#mefc0a0a202" y="158.730582"/>
     <use style="fill:#1f77b4;stroke:#1f77b4;" x="464.257895" xlink:href="#mefc0a0a202" y="146.215164"/>
     <use style="fill:#1f77b4;stroke:#1f77b4;" x="488.286603" xlink:href="#mefc0a0a202" y="135.250295"/>
     <use style="fill:#1f77b4;stroke:#1f77b4;" x="512.315311" xlink:href="#mefc0a0a202" y="110.132132"/>
     <use style="fill:#1f77b4;stroke:#1f77b4;" x="536.344019" xlink:href="#mefc0a0a202" y="88.996728"/>
     <use style="fill:#1f77b4;stroke:#1f77b4;" x="560.372727" xlink:href="#mefc0a0a202" y="71.231825"/>
    </g>
   </g>
   <g id="line2d_18">
    <defs>
     <path d="M 5 0 
L -5 -0 
" id="mdb2df4f791" style="stroke:#ff7f0e;"/>
    </defs>
    <g clip-path="url(#pea7862f7f1)">
     <use style="fill:#ff7f0e;stroke:#ff7f0e;" x="103.827273" xlink:href="#mdb2df4f791" y="379.154697"/>
     <use style="fill:#ff7f0e;stroke:#ff7f0e;" x="127.855981" xlink:href="#mdb2df4f791" y="379.980492"/>
     <use style="fill:#ff7f0e;stroke:#ff7f0e;" x="151.884689" xlink:href="#mdb2df4f791" y="380.15372"/>
     <use style="fill:#ff7f0e;stroke:#ff7f0e;" x="175.913397" xlink:href="#mdb2df4f791" y="409.732554"/>
     <use style="fill:#ff7f0e;stroke:#ff7f0e;" x="199.942105" xlink:href="#mdb2df4f791" y="417.583963"/>
     <use style="fill:#ff7f0e;stroke:#ff7f0e;" x="223.970813" xlink:href="#mdb2df4f791" y="423.709587"/>
     <use style="fill:#ff7f0e;stroke:#ff7f0e;" x="247.999522" xlink:href="#mdb2df4f791" y="433.228316"/>
     <use style="fill:#ff7f0e;stroke:#ff7f0e;" x="272.02823" xlink:href="#mdb2df4f791" y="443.943622"/>
     <use style="fill:#ff7f0e;stroke:#ff7f0e;" x="296.056938" xlink:href="#mdb2df4f791" y="446.359334"/>
     <use style="fill:#ff7f0e;stroke:#ff7f0e;" x="320.085646" xlink:href="#mdb2df4f791" y="451.304577"/>
     <use style="fill:#ff7f0e;stroke:#ff7f0e;" x="344.114354" xlink:href="#mdb2df4f791" y="457.286998"/>
     <use style="fill:#ff7f0e;stroke:#ff7f0e;" x="368.143062" xlink:href="#mdb2df4f791" y="458.74913"/>
     <use style="fill:#ff7f0e;stroke:#ff7f0e;" x="392.17177" xlink:href="#mdb2df4f791" y="459.068323"/>
     <use style="fill:#ff7f0e;stroke:#ff7f0e;" x="416.200478" xlink:href="#mdb2df4f791" y="457.534896"/>
     <use style="fill:#ff7f0e;stroke:#ff7f0e;" x="440.229187" xlink:href="#mdb2df4f791" y="458.729821"/>
     <use style="fill:#ff7f0e;stroke:#ff7f0e;" x="464.257895" xlink:href="#mdb2df4f791" y="456.532879"/>
     <use style="fill:#ff7f0e;stroke:#ff7f0e;" x="488.286603" xlink:href="#mdb2df4f791" y="458.674068"/>
     <use style="fill:#ff7f0e;stroke:#ff7f0e;" x="512.315311" xlink:href="#mdb2df4f791" y="458.431298"/>
     <use style="fill:#ff7f0e;stroke:#ff7f0e;" x="536.344019" xlink:href="#mdb2df4f791" y="454.732196"/>
     <use style="fill:#ff7f0e;stroke:#ff7f0e;" x="560.372727" xlink:href="#mdb2df4f791" y="454.828497"/>
    </g>
   </g>
   <g id="line2d_19">
    <g clip-path="url(#pea7862f7f1)">
     <use style="fill:#ff7f0e;stroke:#ff7f0e;" x="103.827273" xlink:href="#mdb2df4f791" y="379.154697"/>
     <use style="fill:#ff7f0e;stroke:#ff7f0e;" x="127.855981" xlink:href="#mdb2df4f791" y="378.233046"/>
     <use style="fill:#ff7f0e;stroke:#ff7f0e;" x="151.884689" xlink:href="#mdb2df4f791" y="377.809528"/>
     <use style="fill:#ff7f0e;stroke:#ff7f0e;" x="175.913397" xlink:href="#mdb2df4f791" y="342.729657"/>
     <use style="fill:#ff7f0e;stroke:#ff7f0e;" x="199.942105" xlink:href="#mdb2df4f791" y="328.881956"/>
     <use style="fill:#ff7f0e;stroke:#ff7f0e;" x="223.970813" xlink:href="#mdb2df4f791" y="316.126329"/>
     <use style="fill:#ff7f0e;stroke:#ff7f0e;" x="247.999522" xlink:href="#mdb2df4f791" y="295.451089"/>
     <use style="fill:#ff7f0e;stroke:#ff7f0e;" x="272.02823" xlink:href="#mdb2df4f791" y="272.487586"/>
     <use style="fill:#ff7f0e;stroke:#ff7f0e;" x="296.056938" xlink:href="#mdb2df4f791" y="260.486329"/>
     <use style="fill:#ff7f0e;stroke:#ff7f0e;" x="320.085646" xlink:href="#mdb2df4f791" y="233.393148"/>
     <use style="fill:#ff7f0e;stroke:#ff7f0e;" x="344.114354" xlink:href="#mdb2df4f791" y="206.018985"/>
     <use style="fill:#ff7f0e;stroke:#ff7f0e;" x="368.143062" xlink:href="#mdb2df4f791" y="198.432753"/>
     <use style="fill:#ff7f0e;stroke:#ff7f0e;" x="392.17177" xlink:href="#mdb2df4f791" y="183.383771"/>
     <use style="fill:#ff7f0e;stroke:#ff7f0e;" x="416.200478" xlink:href="#mdb2df4f791" y="176.407364"/>
     <use style="fill:#ff7f0e;stroke:#ff7f0e;" x="440.229187" xlink:href="#mdb2df4f791" y="161.845928"/>
     <use style="fill:#ff7f0e;stroke:#ff7f0e;" x="464.257895" xlink:href="#mdb2df4f791" y="151.027829"/>
     <use style="fill:#ff7f0e;stroke:#ff7f0e;" x="488.286603" xlink:href="#mdb2df4f791" y="118.766724"/>
     <use style="fill:#ff7f0e;stroke:#ff7f0e;" x="512.315311" xlink:href="#mdb2df4f791" y="114.397782"/>
     <use style="fill:#ff7f0e;stroke:#ff7f0e;" x="536.344019" xlink:href="#mdb2df4f791" y="110.455073"/>
     <use style="fill:#ff7f0e;stroke:#ff7f0e;" x="560.372727" xlink:href="#mdb2df4f791" y="100.448382"/>
    </g>
   </g>
   <g id="line2d_20">
    <defs>
     <path d="M 5 0 
L -5 -0 
" id="m249e764cc5" style="stroke:#2ca02c;"/>
    </defs>
    <g clip-path="url(#pea7862f7f1)">
     <use style="fill:#2ca02c;stroke:#2ca02c;" x="103.827273" xlink:href="#m249e764cc5" y="379.154697"/>
     <use style="fill:#2ca02c;stroke:#2ca02c;" x="127.855981" xlink:href="#m249e764cc5" y="379.154697"/>
     <use style="fill:#2ca02c;stroke:#2ca02c;" x="151.884689" xlink:href="#m249e764cc5" y="383.14553"/>
     <use style="fill:#2ca02c;stroke:#2ca02c;" x="175.913397" xlink:href="#m249e764cc5" y="385.784141"/>
     <use style="fill:#2ca02c;stroke:#2ca02c;" x="199.942105" xlink:href="#m249e764cc5" y="389.839238"/>
     <use style="fill:#2ca02c;stroke:#2ca02c;" x="223.970813" xlink:href="#m249e764cc5" y="395.781663"/>
     <use style="fill:#2ca02c;stroke:#2ca02c;" x="247.999522" xlink:href="#m249e764cc5" y="398.329456"/>
     <use style="fill:#2ca02c;stroke:#2ca02c;" x="272.02823" xlink:href="#m249e764cc5" y="405.509402"/>
     <use style="fill:#2ca02c;stroke:#2ca02c;" x="296.056938" xlink:href="#m249e764cc5" y="415.764078"/>
     <use style="fill:#2ca02c;stroke:#2ca02c;" x="320.085646" xlink:href="#m249e764cc5" y="415.833837"/>
     <use style="fill:#2ca02c;stroke:#2ca02c;" x="344.114354" xlink:href="#m249e764cc5" y="419.226782"/>
     <use style="fill:#2ca02c;stroke:#2ca02c;" x="368.143062" xlink:href="#m249e764cc5" y="417.261375"/>
     <use style="fill:#2ca02c;stroke:#2ca02c;" x="392.17177" xlink:href="#m249e764cc5" y="425.55394"/>
     <use style="fill:#2ca02c;stroke:#2ca02c;" x="416.200478" xlink:href="#m249e764cc5" y="429.386383"/>
     <use style="fill:#2ca02c;stroke:#2ca02c;" x="440.229187" xlink:href="#m249e764cc5" y="429.723329"/>
     <use style="fill:#2ca02c;stroke:#2ca02c;" x="464.257895" xlink:href="#m249e764cc5" y="425.247039"/>
     <use style="fill:#2ca02c;stroke:#2ca02c;" x="488.286603" xlink:href="#m249e764cc5" y="428.710195"/>
     <use style="fill:#2ca02c;stroke:#2ca02c;" x="512.315311" xlink:href="#m249e764cc5" y="434.10599"/>
     <use style="fill:#2ca02c;stroke:#2ca02c;" x="536.344019" xlink:href="#m249e764cc5" y="419.566597"/>
     <use style="fill:#2ca02c;stroke:#2ca02c;" x="560.372727" xlink:href="#m249e764cc5" y="428.198105"/>
    </g>
   </g>
   <g id="line2d_21">
    <g clip-path="url(#pea7862f7f1)">
     <use style="fill:#2ca02c;stroke:#2ca02c;" x="103.827273" xlink:href="#m249e764cc5" y="379.154697"/>
     <use style="fill:#2ca02c;stroke:#2ca02c;" x="127.855981" xlink:href="#m249e764cc5" y="379.154697"/>
     <use style="fill:#2ca02c;stroke:#2ca02c;" x="151.884689" xlink:href="#m249e764cc5" y="374.833695"/>
     <use style="fill:#2ca02c;stroke:#2ca02c;" x="175.913397" xlink:href="#m249e764cc5" y="370.703999"/>
     <use style="fill:#2ca02c;stroke:#2ca02c;" x="199.942105" xlink:href="#m249e764cc5" y="364.348371"/>
     <use style="fill:#2ca02c;stroke:#2ca02c;" x="223.970813" xlink:href="#m249e764cc5" y="353.133895"/>
     <use style="fill:#2ca02c;stroke:#2ca02c;" x="247.999522" xlink:href="#m249e764cc5" y="343.908172"/>
     <use style="fill:#2ca02c;stroke:#2ca02c;" x="272.02823" xlink:href="#m249e764cc5" y="327.781716"/>
     <use style="fill:#2ca02c;stroke:#2ca02c;" x="296.056938" xlink:href="#m249e764cc5" y="302.861155"/>
     <use style="fill:#2ca02c;stroke:#2ca02c;" x="320.085646" xlink:href="#m249e764cc5" y="291.895826"/>
     <use style="fill:#2ca02c;stroke:#2ca02c;" x="344.114354" xlink:href="#m249e764cc5" y="271.153043"/>
     <use style="fill:#2ca02c;stroke:#2ca02c;" x="368.143062" xlink:href="#m249e764cc5" y="264.779024"/>
     <use style="fill:#2ca02c;stroke:#2ca02c;" x="392.17177" xlink:href="#m249e764cc5" y="236.793488"/>
     <use style="fill:#2ca02c;stroke:#2ca02c;" x="416.200478" xlink:href="#m249e764cc5" y="216.72952"/>
     <use style="fill:#2ca02c;stroke:#2ca02c;" x="440.229187" xlink:href="#m249e764cc5" y="188.722299"/>
     <use style="fill:#2ca02c;stroke:#2ca02c;" x="464.257895" xlink:href="#m249e764cc5" y="181.727885"/>
     <use style="fill:#2ca02c;stroke:#2ca02c;" x="488.286603" xlink:href="#m249e764cc5" y="161.149204"/>
     <use style="fill:#2ca02c;stroke:#2ca02c;" x="512.315311" xlink:href="#m249e764cc5" y="129.318603"/>
     <use style="fill:#2ca02c;stroke:#2ca02c;" x="536.344019" xlink:href="#m249e764cc5" y="143.644985"/>
     <use style="fill:#2ca02c;stroke:#2ca02c;" x="560.372727" xlink:href="#m249e764cc5" y="108.024839"/>
    </g>
   </g>
   <g id="line2d_22">
    <defs>
     <path d="M 5 0 
L -5 -0 
" id="m5f6f5f025a" style="stroke:#d62728;"/>
    </defs>
    <g clip-path="url(#pea7862f7f1)">
     <use style="fill:#d62728;stroke:#d62728;" x="103.827273" xlink:href="#m5f6f5f025a" y="379.154697"/>
     <use style="fill:#d62728;stroke:#d62728;" x="127.855981" xlink:href="#m5f6f5f025a" y="379.387467"/>
     <use style="fill:#d62728;stroke:#d62728;" x="151.884689" xlink:href="#m5f6f5f025a" y="380.57509"/>
     <use style="fill:#d62728;stroke:#d62728;" x="175.913397" xlink:href="#m5f6f5f025a" y="383.384332"/>
     <use style="fill:#d62728;stroke:#d62728;" x="199.942105" xlink:href="#m5f6f5f025a" y="387.020368"/>
     <use style="fill:#d62728;stroke:#d62728;" x="223.970813" xlink:href="#m5f6f5f025a" y="386.077876"/>
     <use style="fill:#d62728;stroke:#d62728;" x="247.999522" xlink:href="#m5f6f5f025a" y="392.798835"/>
     <use style="fill:#d62728;stroke:#d62728;" x="272.02823" xlink:href="#m5f6f5f025a" y="389.673256"/>
     <use style="fill:#d62728;stroke:#d62728;" x="296.056938" xlink:href="#m5f6f5f025a" y="390.350213"/>
     <use style="fill:#d62728;stroke:#d62728;" x="320.085646" xlink:href="#m5f6f5f025a" y="395.015567"/>
     <use style="fill:#d62728;stroke:#d62728;" x="344.114354" xlink:href="#m5f6f5f025a" y="395.311514"/>
     <use style="fill:#d62728;stroke:#d62728;" x="368.143062" xlink:href="#m5f6f5f025a" y="397.311709"/>
     <use style="fill:#d62728;stroke:#d62728;" x="392.17177" xlink:href="#m5f6f5f025a" y="403.216933"/>
     <use style="fill:#d62728;stroke:#d62728;" x="416.200478" xlink:href="#m5f6f5f025a" y="399.310449"/>
     <use style="fill:#d62728;stroke:#d62728;" x="440.229187" xlink:href="#m5f6f5f025a" y="396.149833"/>
     <use style="fill:#d62728;stroke:#d62728;" x="464.257895" xlink:href="#m5f6f5f025a" y="397.023769"/>
     <use style="fill:#d62728;stroke:#d62728;" x="488.286603" xlink:href="#m5f6f5f025a" y="397.12943"/>
     <use style="fill:#d62728;stroke:#d62728;" x="512.315311" xlink:href="#m5f6f5f025a" y="403.000574"/>
     <use style="fill:#d62728;stroke:#d62728;" x="536.344019" xlink:href="#m5f6f5f025a" y="398.714292"/>
     <use style="fill:#d62728;stroke:#d62728;" x="560.372727" xlink:href="#m5f6f5f025a" y="404.721652"/>
    </g>
   </g>
   <g id="line2d_23">
    <g clip-path="url(#pea7862f7f1)">
     <use style="fill:#d62728;stroke:#d62728;" x="103.827273" xlink:href="#m5f6f5f025a" y="379.154697"/>
     <use style="fill:#d62728;stroke:#d62728;" x="127.855981" xlink:href="#m5f6f5f025a" y="378.911276"/>
     <use style="fill:#d62728;stroke:#d62728;" x="151.884689" xlink:href="#m5f6f5f025a" y="377.531942"/>
     <use style="fill:#d62728;stroke:#d62728;" x="175.913397" xlink:href="#m5f6f5f025a" y="373.465929"/>
     <use style="fill:#d62728;stroke:#d62728;" x="199.942105" xlink:href="#m5f6f5f025a" y="368.253603"/>
     <use style="fill:#d62728;stroke:#d62728;" x="223.970813" xlink:href="#m5f6f5f025a" y="366.363033"/>
     <use style="fill:#d62728;stroke:#d62728;" x="247.999522" xlink:href="#m5f6f5f025a" y="354.295469"/>
     <use style="fill:#d62728;stroke:#d62728;" x="272.02823" xlink:href="#m5f6f5f025a" y="354.566686"/>
     <use style="fill:#d62728;stroke:#d62728;" x="296.056938" xlink:href="#m5f6f5f025a" y="347.105293"/>
     <use style="fill:#d62728;stroke:#d62728;" x="320.085646" xlink:href="#m5f6f5f025a" y="334.37743"/>
     <use style="fill:#d62728;stroke:#d62728;" x="344.114354" xlink:href="#m5f6f5f025a" y="329.448469"/>
     <use style="fill:#d62728;stroke:#d62728;" x="368.143062" xlink:href="#m5f6f5f025a" y="321.164415"/>
     <use style="fill:#d62728;stroke:#d62728;" x="392.17177" xlink:href="#m5f6f5f025a" y="306.664152"/>
     <use style="fill:#d62728;stroke:#d62728;" x="416.200478" xlink:href="#m5f6f5f025a" y="307.939936"/>
     <use style="fill:#d62728;stroke:#d62728;" x="440.229187" xlink:href="#m5f6f5f025a" y="304.603682"/>
     <use style="fill:#d62728;stroke:#d62728;" x="464.257895" xlink:href="#m5f6f5f025a" y="297.28613"/>
     <use style="fill:#d62728;stroke:#d62728;" x="488.286603" xlink:href="#m5f6f5f025a" y="290.736851"/>
     <use style="fill:#d62728;stroke:#d62728;" x="512.315311" xlink:href="#m5f6f5f025a" y="273.458907"/>
     <use style="fill:#d62728;stroke:#d62728;" x="536.344019" xlink:href="#m5f6f5f025a" y="277.276563"/>
     <use style="fill:#d62728;stroke:#d62728;" x="560.372727" xlink:href="#m5f6f5f025a" y="260.000861"/>
    </g>
   </g>
   <g id="line2d_24">
    <path clip-path="url(#pea7862f7f1)" d="M 103.827273 379.154697 
L 127.855981 379.154697 
L 151.884689 379.005588 
L 175.913397 378.132238 
L 199.942105 375.916912 
L 223.970813 371.480935 
L 247.999522 368.690476 
L 272.02823 362.145678 
L 296.056938 353.337626 
L 320.085646 346.420057 
L 344.114354 338.213765 
L 368.143062 325.390435 
L 392.17177 320.107734 
L 416.200478 309.888477 
L 440.229187 293.822037 
L 464.257895 289.716228 
L 488.286603 283.890346 
L 512.315311 266.503231 
L 536.344019 259.575011 
L 560.372727 248.860501 
" style="fill:none;stroke:#1f77b4;stroke-linecap:square;stroke-width:1.5;"/>
    <defs>
     <path d="M 0 3 
C 0.795609 3 1.55874 2.683901 2.12132 2.12132 
C 2.683901 1.55874 3 0.795609 3 0 
C 3 -0.795609 2.683901 -1.55874 2.12132 -2.12132 
C 1.55874 -2.683901 0.795609 -3 0 -3 
C -0.795609 -3 -1.55874 -2.683901 -2.12132 -2.12132 
C -2.683901 -1.55874 -3 -0.795609 -3 0 
C -3 0.795609 -2.683901 1.55874 -2.12132 2.12132 
C -1.55874 2.683901 -0.795609 3 0 3 
z
" id="mf8f206befd" style="stroke:#1f77b4;"/>
    </defs>
    <g clip-path="url(#pea7862f7f1)">
     <use style="fill:#1f77b4;stroke:#1f77b4;" x="103.827273" xlink:href="#mf8f206befd" y="379.154697"/>
     <use style="fill:#1f77b4;stroke:#1f77b4;" x="127.855981" xlink:href="#mf8f206befd" y="379.154697"/>
     <use style="fill:#1f77b4;stroke:#1f77b4;" x="151.884689" xlink:href="#mf8f206befd" y="379.005588"/>
     <use style="fill:#1f77b4;stroke:#1f77b4;" x="175.913397" xlink:href="#mf8f206befd" y="378.132238"/>
     <use style="fill:#1f77b4;stroke:#1f77b4;" x="199.942105" xlink:href="#mf8f206befd" y="375.916912"/>
     <use style="fill:#1f77b4;stroke:#1f77b4;" x="223.970813" xlink:href="#mf8f206befd" y="371.480935"/>
     <use style="fill:#1f77b4;stroke:#1f77b4;" x="247.999522" xlink:href="#mf8f206befd" y="368.690476"/>
     <use style="fill:#1f77b4;stroke:#1f77b4;" x="272.02823" xlink:href="#mf8f206befd" y="362.145678"/>
     <use style="fill:#1f77b4;stroke:#1f77b4;" x="296.056938" xlink:href="#mf8f206befd" y="353.337626"/>
     <use style="fill:#1f77b4;stroke:#1f77b4;" x="320.085646" xlink:href="#mf8f206befd" y="346.420057"/>
     <use style="fill:#1f77b4;stroke:#1f77b4;" x="344.114354" xlink:href="#mf8f206befd" y="338.213765"/>
     <use style="fill:#1f77b4;stroke:#1f77b4;" x="368.143062" xlink:href="#mf8f206befd" y="325.390435"/>
     <use style="fill:#1f77b4;stroke:#1f77b4;" x="392.17177" xlink:href="#mf8f206befd" y="320.107734"/>
     <use style="fill:#1f77b4;stroke:#1f77b4;" x="416.200478" xlink:href="#mf8f206befd" y="309.888477"/>
     <use style="fill:#1f77b4;stroke:#1f77b4;" x="440.229187" xlink:href="#mf8f206befd" y="293.822037"/>
     <use style="fill:#1f77b4;stroke:#1f77b4;" x="464.257895" xlink:href="#mf8f206befd" y="289.716228"/>
     <use style="fill:#1f77b4;stroke:#1f77b4;" x="488.286603" xlink:href="#mf8f206befd" y="283.890346"/>
     <use style="fill:#1f77b4;stroke:#1f77b4;" x="512.315311" xlink:href="#mf8f206befd" y="266.503231"/>
     <use style="fill:#1f77b4;stroke:#1f77b4;" x="536.344019" xlink:href="#mf8f206befd" y="259.575011"/>
     <use style="fill:#1f77b4;stroke:#1f77b4;" x="560.372727" xlink:href="#mf8f206befd" y="248.860501"/>
    </g>
   </g>
   <g id="line2d_25">
    <path clip-path="url(#pea7862f7f1)" d="M 103.827273 379.154697 
L 127.855981 379.106769 
L 151.884689 378.981624 
L 175.913397 376.231105 
L 199.942105 373.232959 
L 223.970813 369.917958 
L 247.999522 364.339703 
L 272.02823 358.215604 
L 296.056938 353.422831 
L 320.085646 342.348863 
L 344.114354 331.652991 
L 368.143062 328.590942 
L 392.17177 321.226047 
L 416.200478 316.97113 
L 440.229187 310.287874 
L 464.257895 303.780354 
L 488.286603 288.720396 
L 512.315311 286.41454 
L 536.344019 282.593634 
L 560.372727 277.63844 
" style="fill:none;stroke:#ff7f0e;stroke-linecap:square;stroke-width:1.5;"/>
    <defs>
     <path d="M 0 3 
C 0.795609 3 1.55874 2.683901 2.12132 2.12132 
C 2.683901 1.55874 3 0.795609 3 0 
C 3 -0.795609 2.683901 -1.55874 2.12132 -2.12132 
C 1.55874 -2.683901 0.795609 -3 0 -3 
C -0.795609 -3 -1.55874 -2.683901 -2.12132 -2.12132 
C -2.683901 -1.55874 -3 -0.795609 -3 0 
C -3 0.795609 -2.683901 1.55874 -2.12132 2.12132 
C -1.55874 2.683901 -0.795609 3 0 3 
z
" id="m16d24d2589" style="stroke:#ff7f0e;"/>
    </defs>
    <g clip-path="url(#pea7862f7f1)">
     <use style="fill:#ff7f0e;stroke:#ff7f0e;" x="103.827273" xlink:href="#m16d24d2589" y="379.154697"/>
     <use style="fill:#ff7f0e;stroke:#ff7f0e;" x="127.855981" xlink:href="#m16d24d2589" y="379.106769"/>
     <use style="fill:#ff7f0e;stroke:#ff7f0e;" x="151.884689" xlink:href="#m16d24d2589" y="378.981624"/>
     <use style="fill:#ff7f0e;stroke:#ff7f0e;" x="175.913397" xlink:href="#m16d24d2589" y="376.231105"/>
     <use style="fill:#ff7f0e;stroke:#ff7f0e;" x="199.942105" xlink:href="#m16d24d2589" y="373.232959"/>
     <use style="fill:#ff7f0e;stroke:#ff7f0e;" x="223.970813" xlink:href="#m16d24d2589" y="369.917958"/>
     <use style="fill:#ff7f0e;stroke:#ff7f0e;" x="247.999522" xlink:href="#m16d24d2589" y="364.339703"/>
     <use style="fill:#ff7f0e;stroke:#ff7f0e;" x="272.02823" xlink:href="#m16d24d2589" y="358.215604"/>
     <use style="fill:#ff7f0e;stroke:#ff7f0e;" x="296.056938" xlink:href="#m16d24d2589" y="353.422831"/>
     <use style="fill:#ff7f0e;stroke:#ff7f0e;" x="320.085646" xlink:href="#m16d24d2589" y="342.348863"/>
     <use style="fill:#ff7f0e;stroke:#ff7f0e;" x="344.114354" xlink:href="#m16d24d2589" y="331.652991"/>
     <use style="fill:#ff7f0e;stroke:#ff7f0e;" x="368.143062" xlink:href="#m16d24d2589" y="328.590942"/>
     <use style="fill:#ff7f0e;stroke:#ff7f0e;" x="392.17177" xlink:href="#m16d24d2589" y="321.226047"/>
     <use style="fill:#ff7f0e;stroke:#ff7f0e;" x="416.200478" xlink:href="#m16d24d2589" y="316.97113"/>
     <use style="fill:#ff7f0e;stroke:#ff7f0e;" x="440.229187" xlink:href="#m16d24d2589" y="310.287874"/>
     <use style="fill:#ff7f0e;stroke:#ff7f0e;" x="464.257895" xlink:href="#m16d24d2589" y="303.780354"/>
     <use style="fill:#ff7f0e;stroke:#ff7f0e;" x="488.286603" xlink:href="#m16d24d2589" y="288.720396"/>
     <use style="fill:#ff7f0e;stroke:#ff7f0e;" x="512.315311" xlink:href="#m16d24d2589" y="286.41454"/>
     <use style="fill:#ff7f0e;stroke:#ff7f0e;" x="536.344019" xlink:href="#m16d24d2589" y="282.593634"/>
     <use style="fill:#ff7f0e;stroke:#ff7f0e;" x="560.372727" xlink:href="#m16d24d2589" y="277.63844"/>
    </g>
   </g>
   <g id="line2d_26">
    <path clip-path="url(#pea7862f7f1)" d="M 103.827273 379.154697 
L 127.855981 379.154697 
L 151.884689 378.989612 
L 175.913397 378.24407 
L 199.942105 377.093804 
L 223.970813 374.457779 
L 247.999522 371.118814 
L 272.02823 366.645559 
L 296.056938 359.312617 
L 320.085646 353.864831 
L 344.114354 345.189912 
L 368.143062 341.0202 
L 392.17177 331.173714 
L 416.200478 323.057952 
L 440.229187 309.222814 
L 464.257895 303.487462 
L 488.286603 294.9297 
L 512.315311 281.712297 
L 536.344019 281.605791 
L 560.372727 268.111472 
" style="fill:none;stroke:#2ca02c;stroke-linecap:square;stroke-width:1.5;"/>
    <defs>
     <path d="M 0 3 
C 0.795609 3 1.55874 2.683901 2.12132 2.12132 
C 2.683901 1.55874 3 0.795609 3 0 
C 3 -0.795609 2.683901 -1.55874 2.12132 -2.12132 
C 1.55874 -2.683901 0.795609 -3 0 -3 
C -0.795609 -3 -1.55874 -2.683901 -2.12132 -2.12132 
C -2.683901 -1.55874 -3 -0.795609 -3 0 
C -3 0.795609 -2.683901 1.55874 -2.12132 2.12132 
C -1.55874 2.683901 -0.795609 3 0 3 
z
" id="m78d0429d8f" style="stroke:#2ca02c;"/>
    </defs>
    <g clip-path="url(#pea7862f7f1)">
     <use style="fill:#2ca02c;stroke:#2ca02c;" x="103.827273" xlink:href="#m78d0429d8f" y="379.154697"/>
     <use style="fill:#2ca02c;stroke:#2ca02c;" x="127.855981" xlink:href="#m78d0429d8f" y="379.154697"/>
     <use style="fill:#2ca02c;stroke:#2ca02c;" x="151.884689" xlink:href="#m78d0429d8f" y="378.989612"/>
     <use style="fill:#2ca02c;stroke:#2ca02c;" x="175.913397" xlink:href="#m78d0429d8f" y="378.24407"/>
     <use style="fill:#2ca02c;stroke:#2ca02c;" x="199.942105" xlink:href="#m78d0429d8f" y="377.093804"/>
     <use style="fill:#2ca02c;stroke:#2ca02c;" x="223.970813" xlink:href="#m78d0429d8f" y="374.457779"/>
     <use style="fill:#2ca02c;stroke:#2ca02c;" x="247.999522" xlink:href="#m78d0429d8f" y="371.118814"/>
     <use style="fill:#2ca02c;stroke:#2ca02c;" x="272.02823" xlink:href="#m78d0429d8f" y="366.645559"/>
     <use style="fill:#2ca02c;stroke:#2ca02c;" x="296.056938" xlink:href="#m78d0429d8f" y="359.312617"/>
     <use style="fill:#2ca02c;stroke:#2ca02c;" x="320.085646" xlink:href="#m78d0429d8f" y="353.864831"/>
     <use style="fill:#2ca02c;stroke:#2ca02c;" x="344.114354" xlink:href="#m78d0429d8f" y="345.189912"/>
     <use style="fill:#2ca02c;stroke:#2ca02c;" x="368.143062" xlink:href="#m78d0429d8f" y="341.0202"/>
     <use style="fill:#2ca02c;stroke:#2ca02c;" x="392.17177" xlink:href="#m78d0429d8f" y="331.173714"/>
     <use style="fill:#2ca02c;stroke:#2ca02c;" x="416.200478" xlink:href="#m78d0429d8f" y="323.057952"/>
     <use style="fill:#2ca02c;stroke:#2ca02c;" x="440.229187" xlink:href="#m78d0429d8f" y="309.222814"/>
     <use style="fill:#2ca02c;stroke:#2ca02c;" x="464.257895" xlink:href="#m78d0429d8f" y="303.487462"/>
     <use style="fill:#2ca02c;stroke:#2ca02c;" x="488.286603" xlink:href="#m78d0429d8f" y="294.9297"/>
     <use style="fill:#2ca02c;stroke:#2ca02c;" x="512.315311" xlink:href="#m78d0429d8f" y="281.712297"/>
     <use style="fill:#2ca02c;stroke:#2ca02c;" x="536.344019" xlink:href="#m78d0429d8f" y="281.605791"/>
     <use style="fill:#2ca02c;stroke:#2ca02c;" x="560.372727" xlink:href="#m78d0429d8f" y="268.111472"/>
    </g>
   </g>
   <g id="line2d_27">
    <path clip-path="url(#pea7862f7f1)" d="M 103.827273 379.154697 
L 127.855981 379.149371 
L 151.884689 379.053516 
L 175.913397 378.42513 
L 199.942105 377.636985 
L 223.970813 376.220455 
L 247.999522 373.547152 
L 272.02823 372.119971 
L 296.056938 368.727753 
L 320.085646 364.696498 
L 344.114354 362.379991 
L 368.143062 359.238062 
L 392.17177 354.940543 
L 416.200478 353.625193 
L 440.229187 350.376758 
L 464.257895 347.154949 
L 488.286603 343.933141 
L 512.315311 338.229741 
L 536.344019 337.995427 
L 560.372727 332.361257 
" style="fill:none;stroke:#d62728;stroke-linecap:square;stroke-width:1.5;"/>
    <defs>
     <path d="M 0 3 
C 0.795609 3 1.55874 2.683901 2.12132 2.12132 
C 2.683901 1.55874 3 0.795609 3 0 
C 3 -0.795609 2.683901 -1.55874 2.12132 -2.12132 
C 1.55874 -2.683901 0.795609 -3 0 -3 
C -0.795609 -3 -1.55874 -2.683901 -2.12132 -2.12132 
C -2.683901 -1.55874 -3 -0.795609 -3 0 
C -3 0.795609 -2.683901 1.55874 -2.12132 2.12132 
C -1.55874 2.683901 -0.795609 3 0 3 
z
" id="me5be19eca2" style="stroke:#d62728;"/>
    </defs>
    <g clip-path="url(#pea7862f7f1)">
     <use style="fill:#d62728;stroke:#d62728;" x="103.827273" xlink:href="#me5be19eca2" y="379.154697"/>
     <use style="fill:#d62728;stroke:#d62728;" x="127.855981" xlink:href="#me5be19eca2" y="379.149371"/>
     <use style="fill:#d62728;stroke:#d62728;" x="151.884689" xlink:href="#me5be19eca2" y="379.053516"/>
     <use style="fill:#d62728;stroke:#d62728;" x="175.913397" xlink:href="#me5be19eca2" y="378.42513"/>
     <use style="fill:#d62728;stroke:#d62728;" x="199.942105" xlink:href="#me5be19eca2" y="377.636985"/>
     <use style="fill:#d62728;stroke:#d62728;" x="223.970813" xlink:href="#me5be19eca2" y="376.220455"/>
     <use style="fill:#d62728;stroke:#d62728;" x="247.999522" xlink:href="#me5be19eca2" y="373.547152"/>
     <use style="fill:#d62728;stroke:#d62728;" x="272.02823" xlink:href="#me5be19eca2" y="372.119971"/>
     <use style="fill:#d62728;stroke:#d62728;" x="296.056938" xlink:href="#me5be19eca2" y="368.727753"/>
     <use style="fill:#d62728;stroke:#d62728;" x="320.085646" xlink:href="#me5be19eca2" y="364.696498"/>
     <use style="fill:#d62728;stroke:#d62728;" x="344.114354" xlink:href="#me5be19eca2" y="362.379991"/>
     <use style="fill:#d62728;stroke:#d62728;" x="368.143062" xlink:href="#me5be19eca2" y="359.238062"/>
     <use style="fill:#d62728;stroke:#d62728;" x="392.17177" xlink:href="#me5be19eca2" y="354.940543"/>
     <use style="fill:#d62728;stroke:#d62728;" x="416.200478" xlink:href="#me5be19eca2" y="353.625193"/>
     <use style="fill:#d62728;stroke:#d62728;" x="440.229187" xlink:href="#me5be19eca2" y="350.376758"/>
     <use style="fill:#d62728;stroke:#d62728;" x="464.257895" xlink:href="#me5be19eca2" y="347.154949"/>
     <use style="fill:#d62728;stroke:#d62728;" x="488.286603" xlink:href="#me5be19eca2" y="343.933141"/>
     <use style="fill:#d62728;stroke:#d62728;" x="512.315311" xlink:href="#me5be19eca2" y="338.229741"/>
     <use style="fill:#d62728;stroke:#d62728;" x="536.344019" xlink:href="#me5be19eca2" y="337.995427"/>
     <use style="fill:#d62728;stroke:#d62728;" x="560.372727" xlink:href="#me5be19eca2" y="332.361257"/>
    </g>
   </g>
   <g id="patch_3">
    <path d="M 81 384.48 
L 81 51.84 
" style="fill:none;stroke:#000000;stroke-linecap:square;stroke-linejoin:miter;stroke-width:0.8;"/>
   </g>
   <g id="patch_4">
    <path d="M 583.2 384.48 
L 583.2 51.84 
" style="fill:none;stroke:#000000;stroke-linecap:square;stroke-linejoin:miter;stroke-width:0.8;"/>
   </g>
   <g id="patch_5">
    <path d="M 81 384.48 
L 583.2 384.48 
" style="fill:none;stroke:#000000;stroke-linecap:square;stroke-linejoin:miter;stroke-width:0.8;"/>
   </g>
   <g id="patch_6">
    <path d="M 81 51.84 
L 583.2 51.84 
" style="fill:none;stroke:#000000;stroke-linecap:square;stroke-linejoin:miter;stroke-width:0.8;"/>
   </g>
   <g id="legend_1">
    <g id="patch_7">
     <path d="M 92.2 158.58 
L 274.3325 158.58 
Q 277.5325 158.58 277.5325 155.38 
L 277.5325 63.04 
Q 277.5325 59.84 274.3325 59.84 
L 92.2 59.84 
Q 89 59.84 89 63.04 
L 89 155.38 
Q 89 158.58 92.2 158.58 
z
" style="fill:#ffffff;opacity:0.8;stroke:#cccccc;stroke-linejoin:miter;"/>
    </g>
    <g id="LineCollection_5">
     <path d="M 111.4 80.7975 
L 111.4 64.7975 
" style="fill:none;stroke:#1f77b4;stroke-width:1.5;"/>
    </g>
    <g id="line2d_28">
     <g>
      <use style="fill:#1f77b4;stroke:#1f77b4;" x="111.4" xlink:href="#mefc0a0a202" y="80.7975"/>
     </g>
    </g>
    <g id="line2d_29">
     <g>
      <use style="fill:#1f77b4;stroke:#1f77b4;" x="111.4" xlink:href="#mefc0a0a202" y="64.7975"/>
     </g>
    </g>
    <g id="line2d_30">
     <path d="M 95.4 72.7975 
L 127.4 72.7975 
" style="fill:none;stroke:#1f77b4;stroke-linecap:square;stroke-width:1.5;"/>
    </g>
    <g id="line2d_31">
     <g>
      <use style="fill:#1f77b4;stroke:#1f77b4;" x="111.4" xlink:href="#mf8f206befd" y="72.7975"/>
     </g>
    </g>
    <g id="text_18">
     <!-- Random Lobster -->
     <g transform="translate(140.2 78.3975)scale(0.16 -0.16)">
      <defs>
       <path d="M 44.390625 34.1875 
Q 47.5625 33.109375 50.5625 29.59375 
Q 53.5625 26.078125 56.59375 19.921875 
L 66.609375 0 
L 56 0 
L 46.6875 18.703125 
Q 43.0625 26.03125 39.671875 28.421875 
Q 36.28125 30.8125 30.421875 30.8125 
L 19.671875 30.8125 
L 19.671875 0 
L 9.8125 0 
L 9.8125 72.90625 
L 32.078125 72.90625 
Q 44.578125 72.90625 50.734375 67.671875 
Q 56.890625 62.453125 56.890625 51.90625 
Q 56.890625 45.015625 53.6875 40.46875 
Q 50.484375 35.9375 44.390625 34.1875 
z
M 19.671875 64.796875 
L 19.671875 38.921875 
L 32.078125 38.921875 
Q 39.203125 38.921875 42.84375 42.21875 
Q 46.484375 45.515625 46.484375 51.90625 
Q 46.484375 58.296875 42.84375 61.546875 
Q 39.203125 64.796875 32.078125 64.796875 
z
" id="DejaVuSans-82"/>
       <path d="M 34.28125 27.484375 
Q 23.390625 27.484375 19.1875 25 
Q 14.984375 22.515625 14.984375 16.5 
Q 14.984375 11.71875 18.140625 8.90625 
Q 21.296875 6.109375 26.703125 6.109375 
Q 34.1875 6.109375 38.703125 11.40625 
Q 43.21875 16.703125 43.21875 25.484375 
L 43.21875 27.484375 
z
M 52.203125 31.203125 
L 52.203125 0 
L 43.21875 0 
L 43.21875 8.296875 
Q 40.140625 3.328125 35.546875 0.953125 
Q 30.953125 -1.421875 24.3125 -1.421875 
Q 15.921875 -1.421875 10.953125 3.296875 
Q 6 8.015625 6 15.921875 
Q 6 25.140625 12.171875 29.828125 
Q 18.359375 34.515625 30.609375 34.515625 
L 43.21875 34.515625 
L 43.21875 35.40625 
Q 43.21875 41.609375 39.140625 45 
Q 35.0625 48.390625 27.6875 48.390625 
Q 23 48.390625 18.546875 47.265625 
Q 14.109375 46.140625 10.015625 43.890625 
L 10.015625 52.203125 
Q 14.9375 54.109375 19.578125 55.046875 
Q 24.21875 56 28.609375 56 
Q 40.484375 56 46.34375 49.84375 
Q 52.203125 43.703125 52.203125 31.203125 
z
" id="DejaVuSans-97"/>
       <path d="M 54.890625 33.015625 
L 54.890625 0 
L 45.90625 0 
L 45.90625 32.71875 
Q 45.90625 40.484375 42.875 44.328125 
Q 39.84375 48.1875 33.796875 48.1875 
Q 26.515625 48.1875 22.3125 43.546875 
Q 18.109375 38.921875 18.109375 30.90625 
L 18.109375 0 
L 9.078125 0 
L 9.078125 54.6875 
L 18.109375 54.6875 
L 18.109375 46.1875 
Q 21.34375 51.125 25.703125 53.5625 
Q 30.078125 56 35.796875 56 
Q 45.21875 56 50.046875 50.171875 
Q 54.890625 44.34375 54.890625 33.015625 
z
" id="DejaVuSans-110"/>
       <path d="M 45.40625 46.390625 
L 45.40625 75.984375 
L 54.390625 75.984375 
L 54.390625 0 
L 45.40625 0 
L 45.40625 8.203125 
Q 42.578125 3.328125 38.25 0.953125 
Q 33.9375 -1.421875 27.875 -1.421875 
Q 17.96875 -1.421875 11.734375 6.484375 
Q 5.515625 14.40625 5.515625 27.296875 
Q 5.515625 40.1875 11.734375 48.09375 
Q 17.96875 56 27.875 56 
Q 33.9375 56 38.25 53.625 
Q 42.578125 51.265625 45.40625 46.390625 
z
M 14.796875 27.296875 
Q 14.796875 17.390625 18.875 11.75 
Q 22.953125 6.109375 30.078125 6.109375 
Q 37.203125 6.109375 41.296875 11.75 
Q 45.40625 17.390625 45.40625 27.296875 
Q 45.40625 37.203125 41.296875 42.84375 
Q 37.203125 48.484375 30.078125 48.484375 
Q 22.953125 48.484375 18.875 42.84375 
Q 14.796875 37.203125 14.796875 27.296875 
z
" id="DejaVuSans-100"/>
       <path d="M 30.609375 48.390625 
Q 23.390625 48.390625 19.1875 42.75 
Q 14.984375 37.109375 14.984375 27.296875 
Q 14.984375 17.484375 19.15625 11.84375 
Q 23.34375 6.203125 30.609375 6.203125 
Q 37.796875 6.203125 41.984375 11.859375 
Q 46.1875 17.53125 46.1875 27.296875 
Q 46.1875 37.015625 41.984375 42.703125 
Q 37.796875 48.390625 30.609375 48.390625 
z
M 30.609375 56 
Q 42.328125 56 49.015625 48.375 
Q 55.71875 40.765625 55.71875 27.296875 
Q 55.71875 13.875 49.015625 6.21875 
Q 42.328125 -1.421875 30.609375 -1.421875 
Q 18.84375 -1.421875 12.171875 6.21875 
Q 5.515625 13.875 5.515625 27.296875 
Q 5.515625 40.765625 12.171875 48.375 
Q 18.84375 56 30.609375 56 
z
" id="DejaVuSans-111"/>
       <path d="M 52 44.1875 
Q 55.375 50.25 60.0625 53.125 
Q 64.75 56 71.09375 56 
Q 79.640625 56 84.28125 50.015625 
Q 88.921875 44.046875 88.921875 33.015625 
L 88.921875 0 
L 79.890625 0 
L 79.890625 32.71875 
Q 79.890625 40.578125 77.09375 44.375 
Q 74.3125 48.1875 68.609375 48.1875 
Q 61.625 48.1875 57.5625 43.546875 
Q 53.515625 38.921875 53.515625 30.90625 
L 53.515625 0 
L 44.484375 0 
L 44.484375 32.71875 
Q 44.484375 40.625 41.703125 44.40625 
Q 38.921875 48.1875 33.109375 48.1875 
Q 26.21875 48.1875 22.15625 43.53125 
Q 18.109375 38.875 18.109375 30.90625 
L 18.109375 0 
L 9.078125 0 
L 9.078125 54.6875 
L 18.109375 54.6875 
L 18.109375 46.1875 
Q 21.1875 51.21875 25.484375 53.609375 
Q 29.78125 56 35.6875 56 
Q 41.65625 56 45.828125 52.96875 
Q 50 49.953125 52 44.1875 
z
" id="DejaVuSans-109"/>
       <path id="DejaVuSans-32"/>
       <path d="M 48.6875 27.296875 
Q 48.6875 37.203125 44.609375 42.84375 
Q 40.53125 48.484375 33.40625 48.484375 
Q 26.265625 48.484375 22.1875 42.84375 
Q 18.109375 37.203125 18.109375 27.296875 
Q 18.109375 17.390625 22.1875 11.75 
Q 26.265625 6.109375 33.40625 6.109375 
Q 40.53125 6.109375 44.609375 11.75 
Q 48.6875 17.390625 48.6875 27.296875 
z
M 18.109375 46.390625 
Q 20.953125 51.265625 25.265625 53.625 
Q 29.59375 56 35.59375 56 
Q 45.5625 56 51.78125 48.09375 
Q 58.015625 40.1875 58.015625 27.296875 
Q 58.015625 14.40625 51.78125 6.484375 
Q 45.5625 -1.421875 35.59375 -1.421875 
Q 29.59375 -1.421875 25.265625 0.953125 
Q 20.953125 3.328125 18.109375 8.203125 
L 18.109375 0 
L 9.078125 0 
L 9.078125 75.984375 
L 18.109375 75.984375 
z
" id="DejaVuSans-98"/>
       <path d="M 44.28125 53.078125 
L 44.28125 44.578125 
Q 40.484375 46.53125 36.375 47.5 
Q 32.28125 48.484375 27.875 48.484375 
Q 21.1875 48.484375 17.84375 46.4375 
Q 14.5 44.390625 14.5 40.28125 
Q 14.5 37.15625 16.890625 35.375 
Q 19.28125 33.59375 26.515625 31.984375 
L 29.59375 31.296875 
Q 39.15625 29.25 43.1875 25.515625 
Q 47.21875 21.78125 47.21875 15.09375 
Q 47.21875 7.46875 41.1875 3.015625 
Q 35.15625 -1.421875 24.609375 -1.421875 
Q 20.21875 -1.421875 15.453125 -0.5625 
Q 10.6875 0.296875 5.421875 2 
L 5.421875 11.28125 
Q 10.40625 8.6875 15.234375 7.390625 
Q 20.0625 6.109375 24.8125 6.109375 
Q 31.15625 6.109375 34.5625 8.28125 
Q 37.984375 10.453125 37.984375 14.40625 
Q 37.984375 18.0625 35.515625 20.015625 
Q 33.0625 21.96875 24.703125 23.78125 
L 21.578125 24.515625 
Q 13.234375 26.265625 9.515625 29.90625 
Q 5.8125 33.546875 5.8125 39.890625 
Q 5.8125 47.609375 11.28125 51.796875 
Q 16.75 56 26.8125 56 
Q 31.78125 56 36.171875 55.265625 
Q 40.578125 54.546875 44.28125 53.078125 
z
" id="DejaVuSans-115"/>
       <path d="M 18.3125 70.21875 
L 18.3125 54.6875 
L 36.8125 54.6875 
L 36.8125 47.703125 
L 18.3125 47.703125 
L 18.3125 18.015625 
Q 18.3125 11.328125 20.140625 9.421875 
Q 21.96875 7.515625 27.59375 7.515625 
L 36.8125 7.515625 
L 36.8125 0 
L 27.59375 0 
Q 17.1875 0 13.234375 3.875 
Q 9.28125 7.765625 9.28125 18.015625 
L 9.28125 47.703125 
L 2.6875 47.703125 
L 2.6875 54.6875 
L 9.28125 54.6875 
L 9.28125 70.21875 
z
" id="DejaVuSans-116"/>
       <path d="M 56.203125 29.59375 
L 56.203125 25.203125 
L 14.890625 25.203125 
Q 15.484375 15.921875 20.484375 11.0625 
Q 25.484375 6.203125 34.421875 6.203125 
Q 39.59375 6.203125 44.453125 7.46875 
Q 49.3125 8.734375 54.109375 11.28125 
L 54.109375 2.78125 
Q 49.265625 0.734375 44.1875 -0.34375 
Q 39.109375 -1.421875 33.890625 -1.421875 
Q 20.796875 -1.421875 13.15625 6.1875 
Q 5.515625 13.8125 5.515625 26.8125 
Q 5.515625 40.234375 12.765625 48.109375 
Q 20.015625 56 32.328125 56 
Q 43.359375 56 49.78125 48.890625 
Q 56.203125 41.796875 56.203125 29.59375 
z
M 47.21875 32.234375 
Q 47.125 39.59375 43.09375 43.984375 
Q 39.0625 48.390625 32.421875 48.390625 
Q 24.90625 48.390625 20.390625 44.140625 
Q 15.875 39.890625 15.1875 32.171875 
z
" id="DejaVuSans-101"/>
       <path d="M 41.109375 46.296875 
Q 39.59375 47.171875 37.8125 47.578125 
Q 36.03125 48 33.890625 48 
Q 26.265625 48 22.1875 43.046875 
Q 18.109375 38.09375 18.109375 28.8125 
L 18.109375 0 
L 9.078125 0 
L 9.078125 54.6875 
L 18.109375 54.6875 
L 18.109375 46.1875 
Q 20.953125 51.171875 25.484375 53.578125 
Q 30.03125 56 36.53125 56 
Q 37.453125 56 38.578125 55.875 
Q 39.703125 55.765625 41.0625 55.515625 
z
" id="DejaVuSans-114"/>
      </defs>
      <use xlink:href="#DejaVuSans-82"/>
      <use x="67.232422" xlink:href="#DejaVuSans-97"/>
      <use x="128.511719" xlink:href="#DejaVuSans-110"/>
      <use x="191.890625" xlink:href="#DejaVuSans-100"/>
      <use x="255.367188" xlink:href="#DejaVuSans-111"/>
      <use x="316.548828" xlink:href="#DejaVuSans-109"/>
      <use x="413.960938" xlink:href="#DejaVuSans-32"/>
      <use x="445.748047" xlink:href="#DejaVuSans-76"/>
      <use x="499.710938" xlink:href="#DejaVuSans-111"/>
      <use x="560.892578" xlink:href="#DejaVuSans-98"/>
      <use x="624.369141" xlink:href="#DejaVuSans-115"/>
      <use x="676.46875" xlink:href="#DejaVuSans-116"/>
      <use x="715.677734" xlink:href="#DejaVuSans-101"/>
      <use x="777.201172" xlink:href="#DejaVuSans-114"/>
     </g>
    </g>
    <g id="LineCollection_6">
     <path d="M 111.4 104.2825 
L 111.4 88.2825 
" style="fill:none;stroke:#ff7f0e;stroke-width:1.5;"/>
    </g>
    <g id="line2d_32">
     <g>
      <use style="fill:#ff7f0e;stroke:#ff7f0e;" x="111.4" xlink:href="#mdb2df4f791" y="104.2825"/>
     </g>
    </g>
    <g id="line2d_33">
     <g>
      <use style="fill:#ff7f0e;stroke:#ff7f0e;" x="111.4" xlink:href="#mdb2df4f791" y="88.2825"/>
     </g>
    </g>
    <g id="line2d_34">
     <path d="M 95.4 96.2825 
L 127.4 96.2825 
" style="fill:none;stroke:#ff7f0e;stroke-linecap:square;stroke-width:1.5;"/>
    </g>
    <g id="line2d_35">
     <g>
      <use style="fill:#ff7f0e;stroke:#ff7f0e;" x="111.4" xlink:href="#m16d24d2589" y="96.2825"/>
     </g>
    </g>
    <g id="text_19">
     <!-- Erdos Renyi -->
     <g transform="translate(140.2 101.8825)scale(0.16 -0.16)">
      <defs>
       <path d="M 32.171875 -5.078125 
Q 28.375 -14.84375 24.75 -17.8125 
Q 21.140625 -20.796875 15.09375 -20.796875 
L 7.90625 -20.796875 
L 7.90625 -13.28125 
L 13.1875 -13.28125 
Q 16.890625 -13.28125 18.9375 -11.515625 
Q 21 -9.765625 23.484375 -3.21875 
L 25.09375 0.875 
L 2.984375 54.6875 
L 12.5 54.6875 
L 29.59375 11.921875 
L 46.6875 54.6875 
L 56.203125 54.6875 
z
" id="DejaVuSans-121"/>
       <path d="M 9.421875 54.6875 
L 18.40625 54.6875 
L 18.40625 0 
L 9.421875 0 
z
M 9.421875 75.984375 
L 18.40625 75.984375 
L 18.40625 64.59375 
L 9.421875 64.59375 
z
" id="DejaVuSans-105"/>
      </defs>
      <use xlink:href="#DejaVuSans-69"/>
      <use x="63.183594" xlink:href="#DejaVuSans-114"/>
      <use x="102.546875" xlink:href="#DejaVuSans-100"/>
      <use x="166.023438" xlink:href="#DejaVuSans-111"/>
      <use x="227.205078" xlink:href="#DejaVuSans-115"/>
      <use x="279.304688" xlink:href="#DejaVuSans-32"/>
      <use x="311.091797" xlink:href="#DejaVuSans-82"/>
      <use x="376.074219" xlink:href="#DejaVuSans-101"/>
      <use x="437.597656" xlink:href="#DejaVuSans-110"/>
      <use x="500.976562" xlink:href="#DejaVuSans-121"/>
      <use x="560.15625" xlink:href="#DejaVuSans-105"/>
     </g>
    </g>
    <g id="LineCollection_7">
     <path d="M 111.4 127.7675 
L 111.4 111.7675 
" style="fill:none;stroke:#2ca02c;stroke-width:1.5;"/>
    </g>
    <g id="line2d_36">
     <g>
      <use style="fill:#2ca02c;stroke:#2ca02c;" x="111.4" xlink:href="#m249e764cc5" y="127.7675"/>
     </g>
    </g>
    <g id="line2d_37">
     <g>
      <use style="fill:#2ca02c;stroke:#2ca02c;" x="111.4" xlink:href="#m249e764cc5" y="111.7675"/>
     </g>
    </g>
    <g id="line2d_38">
     <path d="M 95.4 119.7675 
L 127.4 119.7675 
" style="fill:none;stroke:#2ca02c;stroke-linecap:square;stroke-width:1.5;"/>
    </g>
    <g id="line2d_39">
     <g>
      <use style="fill:#2ca02c;stroke:#2ca02c;" x="111.4" xlink:href="#m78d0429d8f" y="119.7675"/>
     </g>
    </g>
    <g id="text_20">
     <!-- Random Tree -->
     <g transform="translate(140.2 125.3675)scale(0.16 -0.16)">
      <use xlink:href="#DejaVuSans-82"/>
      <use x="67.232422" xlink:href="#DejaVuSans-97"/>
      <use x="128.511719" xlink:href="#DejaVuSans-110"/>
      <use x="191.890625" xlink:href="#DejaVuSans-100"/>
      <use x="255.367188" xlink:href="#DejaVuSans-111"/>
      <use x="316.548828" xlink:href="#DejaVuSans-109"/>
      <use x="413.960938" xlink:href="#DejaVuSans-32"/>
      <use x="445.748047" xlink:href="#DejaVuSans-84"/>
      <use x="492.082031" xlink:href="#DejaVuSans-114"/>
      <use x="530.945312" xlink:href="#DejaVuSans-101"/>
      <use x="592.46875" xlink:href="#DejaVuSans-101"/>
     </g>
    </g>
    <g id="LineCollection_8">
     <path d="M 111.4 151.2525 
L 111.4 135.2525 
" style="fill:none;stroke:#d62728;stroke-width:1.5;"/>
    </g>
    <g id="line2d_40">
     <g>
      <use style="fill:#d62728;stroke:#d62728;" x="111.4" xlink:href="#m5f6f5f025a" y="151.2525"/>
     </g>
    </g>
    <g id="line2d_41">
     <g>
      <use style="fill:#d62728;stroke:#d62728;" x="111.4" xlink:href="#m5f6f5f025a" y="135.2525"/>
     </g>
    </g>
    <g id="line2d_42">
     <path d="M 95.4 143.2525 
L 127.4 143.2525 
" style="fill:none;stroke:#d62728;stroke-linecap:square;stroke-width:1.5;"/>
    </g>
    <g id="line2d_43">
     <g>
      <use style="fill:#d62728;stroke:#d62728;" x="111.4" xlink:href="#me5be19eca2" y="143.2525"/>
     </g>
    </g>
    <g id="text_21">
     <!-- Circular Ladder -->
     <g transform="translate(140.2 148.8525)scale(0.16 -0.16)">
      <defs>
       <path d="M 64.40625 67.28125 
L 64.40625 56.890625 
Q 59.421875 61.53125 53.78125 63.8125 
Q 48.140625 66.109375 41.796875 66.109375 
Q 29.296875 66.109375 22.65625 58.46875 
Q 16.015625 50.828125 16.015625 36.375 
Q 16.015625 21.96875 22.65625 14.328125 
Q 29.296875 6.6875 41.796875 6.6875 
Q 48.140625 6.6875 53.78125 8.984375 
Q 59.421875 11.28125 64.40625 15.921875 
L 64.40625 5.609375 
Q 59.234375 2.09375 53.4375 0.328125 
Q 47.65625 -1.421875 41.21875 -1.421875 
Q 24.65625 -1.421875 15.125 8.703125 
Q 5.609375 18.84375 5.609375 36.375 
Q 5.609375 53.953125 15.125 64.078125 
Q 24.65625 74.21875 41.21875 74.21875 
Q 47.75 74.21875 53.53125 72.484375 
Q 59.328125 70.75 64.40625 67.28125 
z
" id="DejaVuSans-67"/>
       <path d="M 48.78125 52.59375 
L 48.78125 44.1875 
Q 44.96875 46.296875 41.140625 47.34375 
Q 37.3125 48.390625 33.40625 48.390625 
Q 24.65625 48.390625 19.8125 42.84375 
Q 14.984375 37.3125 14.984375 27.296875 
Q 14.984375 17.28125 19.8125 11.734375 
Q 24.65625 6.203125 33.40625 6.203125 
Q 37.3125 6.203125 41.140625 7.25 
Q 44.96875 8.296875 48.78125 10.40625 
L 48.78125 2.09375 
Q 45.015625 0.34375 40.984375 -0.53125 
Q 36.96875 -1.421875 32.421875 -1.421875 
Q 20.0625 -1.421875 12.78125 6.34375 
Q 5.515625 14.109375 5.515625 27.296875 
Q 5.515625 40.671875 12.859375 48.328125 
Q 20.21875 56 33.015625 56 
Q 37.15625 56 41.109375 55.140625 
Q 45.0625 54.296875 48.78125 52.59375 
z
" id="DejaVuSans-99"/>
       <path d="M 8.5 21.578125 
L 8.5 54.6875 
L 17.484375 54.6875 
L 17.484375 21.921875 
Q 17.484375 14.15625 20.5 10.265625 
Q 23.53125 6.390625 29.59375 6.390625 
Q 36.859375 6.390625 41.078125 11.03125 
Q 45.3125 15.671875 45.3125 23.6875 
L 45.3125 54.6875 
L 54.296875 54.6875 
L 54.296875 0 
L 45.3125 0 
L 45.3125 8.40625 
Q 42.046875 3.421875 37.71875 1 
Q 33.40625 -1.421875 27.6875 -1.421875 
Q 18.265625 -1.421875 13.375 4.4375 
Q 8.5 10.296875 8.5 21.578125 
z
M 31.109375 56 
z
" id="DejaVuSans-117"/>
       <path d="M 9.421875 75.984375 
L 18.40625 75.984375 
L 18.40625 0 
L 9.421875 0 
z
" id="DejaVuSans-108"/>
      </defs>
      <use xlink:href="#DejaVuSans-67"/>
      <use x="69.824219" xlink:href="#DejaVuSans-105"/>
      <use x="97.607422" xlink:href="#DejaVuSans-114"/>
      <use x="136.470703" xlink:href="#DejaVuSans-99"/>
      <use x="191.451172" xlink:href="#DejaVuSans-117"/>
      <use x="254.830078" xlink:href="#DejaVuSans-108"/>
      <use x="282.613281" xlink:href="#DejaVuSans-97"/>
      <use x="343.892578" xlink:href="#DejaVuSans-114"/>
      <use x="385.005859" xlink:href="#DejaVuSans-32"/>
      <use x="416.792969" xlink:href="#DejaVuSans-76"/>
      <use x="472.505859" xlink:href="#DejaVuSans-97"/>
      <use x="533.785156" xlink:href="#DejaVuSans-100"/>
      <use x="597.261719" xlink:href="#DejaVuSans-100"/>
      <use x="660.738281" xlink:href="#DejaVuSans-101"/>
      <use x="722.261719" xlink:href="#DejaVuSans-114"/>
     </g>
    </g>
   </g>
  </g>
 </g>
 <defs>
  <clipPath id="pea7862f7f1">
   <rect height="332.64" width="502.2" x="81" y="51.84"/>
  </clipPath>
 </defs>
</svg>
